{
	"patcher" : 	{
		"fileversion" : 1,
		"appversion" : 		{
			"major" : 8,
			"minor" : 6,
			"revision" : 2,
			"architecture" : "x64",
			"modernui" : 1
		}
,
		"classnamespace" : "box",
		"rect" : [ 1118.0, 230.0, 893.0, 1081.0 ],
		"bglocked" : 0,
		"openinpresentation" : 1,
		"default_fontsize" : 10.0,
		"default_fontface" : 0,
		"default_fontname" : "Consolas",
		"gridonopen" : 1,
		"gridsize" : [ 15.0, 15.0 ],
		"gridsnaponopen" : 1,
		"objectsnaponopen" : 1,
		"statusbarvisible" : 2,
		"toolbarvisible" : 1,
		"lefttoolbarpinned" : 0,
		"toptoolbarpinned" : 0,
		"righttoolbarpinned" : 0,
		"bottomtoolbarpinned" : 0,
		"toolbars_unpinned_last_save" : 0,
		"tallnewobj" : 0,
		"boxanimatetime" : 200,
		"enablehscroll" : 1,
		"enablevscroll" : 1,
		"devicewidth" : 0.0,
		"description" : "",
		"digest" : "",
		"tags" : "",
		"style" : "",
		"subpatcher_template" : "",
		"assistshowspatchername" : 0,
		"boxes" : [ 			{
				"box" : 				{
					"bgcolor" : [ 0.54, 0.54, 0.54, 0.0 ],
					"fontname" : "Consolas",
					"fontsize" : 10.0,
					"format" : 6,
					"htricolor" : [ 0.223529411764706, 0.23921568627451, 0.258823529411765, 1.0 ],
					"id" : "obj-14",
					"maxclass" : "flonum",
					"maximum" : 1.0,
					"minimum" : 0.0,
					"numdecimalplaces" : 3,
					"numinlets" : 1,
					"numoutlets" : 2,
					"outlettype" : [ "", "bang" ],
					"parameter_enable" : 0,
					"patching_rect" : [ 1232.813598000000184, 529.65002400000003, 44.0, 18.0 ],
					"presentation" : 1,
					"presentation_rect" : [ 293.0, 149.0, 43.0, 18.0 ],
					"textcolor" : [ 1.0, 1.0, 1.0, 1.0 ],
					"tricolor" : [ 0.223529411764706, 0.23921568627451, 0.258823529411765, 1.0 ],
					"triscale" : 0.5,
					"varname" : "val_slidedown"
				}

			}
, 			{
				"box" : 				{
					"bgcolor" : [ 0.54, 0.54, 0.54, 0.0 ],
					"fontname" : "Consolas",
					"fontsize" : 10.0,
					"format" : 6,
					"htricolor" : [ 0.223529411764706, 0.23921568627451, 0.258823529411765, 1.0 ],
					"id" : "obj-15",
					"maxclass" : "flonum",
					"maximum" : 1.0,
					"minimum" : 0.0,
					"numdecimalplaces" : 3,
					"numinlets" : 1,
					"numoutlets" : 2,
					"outlettype" : [ "", "bang" ],
					"parameter_enable" : 0,
					"patching_rect" : [ 1082.349975000000086, 529.65002400000003, 44.0, 18.0 ],
					"presentation" : 1,
					"presentation_rect" : [ 242.0, 149.0, 43.0, 18.0 ],
					"textcolor" : [ 1.0, 1.0, 1.0, 1.0 ],
					"tricolor" : [ 0.223529411764706, 0.23921568627451, 0.258823529411765, 1.0 ],
					"triscale" : 0.5,
					"varname" : "val_slidup"
				}

			}
, 			{
				"box" : 				{
					"fontface" : 1,
					"id" : "obj-22",
					"maxclass" : "comment",
					"numinlets" : 1,
					"numoutlets" : 0,
					"patching_rect" : [ 621.0, 1514.0, 154.0, 16.0 ],
					"presentation" : 1,
					"presentation_rect" : [ 122.0, 150.0, 112.0, 16.0 ],
					"text" : "SLIDE [ * 100. ]",
					"textcolor" : [ 0.129411764705882, 0.129411764705882, 0.129411764705882, 1.0 ]
				}

			}
, 			{
				"box" : 				{
					"angle" : 270.0,
					"bgcolor" : [ 0.501960784313725, 0.501960784313725, 0.501960784313725, 1.0 ],
					"bordercolor" : [ 0.807843137254902, 0.898039215686275, 0.909803921568627, 0.0 ],
					"id" : "obj-24",
					"maxclass" : "panel",
					"mode" : 0,
					"numinlets" : 1,
					"numoutlets" : 0,
					"patching_rect" : [ 457.0, 1670.0, 128.0, 128.0 ],
					"presentation" : 1,
					"presentation_rect" : [ 119.0, 148.0, 231.0, 20.0 ],
					"proportion" : 0.5,
					"rounded" : 2
				}

			}
, 			{
				"box" : 				{
					"id" : "obj-16",
					"maxclass" : "newobj",
					"numinlets" : 6,
					"numoutlets" : 1,
					"outlettype" : [ "" ],
					"patching_rect" : [ 1232.813598000000184, 569.65002400000003, 113.0, 18.0 ],
					"text" : "scale 0. 1. 1. 100."
				}

			}
, 			{
				"box" : 				{
					"id" : "obj-21",
					"maxclass" : "newobj",
					"numinlets" : 6,
					"numoutlets" : 1,
					"outlettype" : [ "" ],
					"patching_rect" : [ 1082.349975000000086, 569.65002400000003, 113.0, 18.0 ],
					"text" : "scale 0. 1. 1. 100."
				}

			}
, 			{
				"box" : 				{
					"id" : "obj-5",
					"maxclass" : "newobj",
					"numinlets" : 3,
					"numoutlets" : 1,
					"outlettype" : [ "float" ],
					"patching_rect" : [ 1019.0, 609.0, 99.0, 18.0 ],
					"text" : "slide"
				}

			}
, 			{
				"box" : 				{
					"bgcolor" : [ 0.54, 0.54, 0.54, 0.0 ],
					"fontname" : "Consolas",
					"fontsize" : 10.0,
					"format" : 6,
					"htricolor" : [ 0.847059, 0.0, 0.0, 1.0 ],
					"id" : "obj-4",
					"maxclass" : "flonum",
					"maximum" : 1.0,
					"minimum" : 0.0,
					"numdecimalplaces" : 4,
					"numinlets" : 1,
					"numoutlets" : 2,
					"outlettype" : [ "", "bang" ],
					"parameter_enable" : 0,
					"patching_rect" : [ 1001.0, 466.5, 44.0, 18.0 ],
					"presentation" : 1,
					"presentation_rect" : [ 293.0, 106.0, 57.0, 18.0 ],
					"textcolor" : [ 0.901960784313726, 0.901960784313726, 0.901960784313726, 1.0 ],
					"triangle" : 0,
					"tricolor" : [ 0.847059, 0.0, 0.0, 1.0 ],
					"triscale" : 0.5
				}

			}
, 			{
				"box" : 				{
					"id" : "obj-3",
					"maxclass" : "jit.pwindow",
					"numinlets" : 1,
					"numoutlets" : 2,
					"outlettype" : [ "jit_matrix", "" ],
					"patching_rect" : [ 651.0, 693.0, 760.0, 10.0 ],
					"presentation" : 1,
					"presentation_rect" : [ 1.0, 106.0, 117.0, 20.0 ],
					"sync" : 1
				}

			}
, 			{
				"box" : 				{
					"id" : "obj-2",
					"maxclass" : "newobj",
					"numinlets" : 1,
					"numoutlets" : 1,
					"outlettype" : [ "" ],
					"patching_rect" : [ 806.0, 212.0, 102.0, 18.0 ],
					"text" : "prepend framesize"
				}

			}
, 			{
				"box" : 				{
					"id" : "obj-103",
					"maxclass" : "newobj",
					"numinlets" : 1,
					"numoutlets" : 4,
					"outlettype" : [ "", "", "", "" ],
					"patching_rect" : [ 1521.0, 156.0, 58.0, 18.0 ],
					"restore" : 					{
						"fbsliddown" : [ 1.0 ],
						"fbslideup" : [ 0.22 ],
						"fbspeed" : [ 0.0 ],
						"matrixamplifier" : [ 0.6 ],
						"signalslidedown" : [ 0.7 ],
						"signalslideup" : [ 0.18 ],
						"textbutton[1]" : [ -1 ],
						"val_amplifier" : [ 0.081 ],
						"val_slidedown" : [ 0.1 ],
						"val_slidup" : [ 0.1 ]
					}
,
					"text" : "autopattr",
					"varname" : "u309004350"
				}

			}
, 			{
				"box" : 				{
					"fontface" : 1,
					"id" : "obj-99",
					"maxclass" : "comment",
					"numinlets" : 1,
					"numoutlets" : 0,
					"patching_rect" : [ 4.0, 233.0, 155.0, 16.0 ],
					"presentation" : 1,
					"presentation_rect" : [ 119.0, 129.0, 95.0, 16.0 ],
					"text" : "AMP [ * 100. ]",
					"textcolor" : [ 0.129411764705882, 0.129411764705882, 0.129411764705882, 1.0 ]
				}

			}
, 			{
				"box" : 				{
					"bgcolor" : [ 0.54, 0.54, 0.54, 0.0 ],
					"fontname" : "Consolas",
					"fontsize" : 10.0,
					"format" : 6,
					"htricolor" : [ 0.223529411764706, 0.23921568627451, 0.258823529411765, 1.0 ],
					"id" : "obj-73",
					"maxclass" : "flonum",
					"maximum" : 1.0,
					"minimum" : 0.0,
					"numdecimalplaces" : 3,
					"numinlets" : 1,
					"numoutlets" : 2,
					"outlettype" : [ "", "bang" ],
					"parameter_enable" : 0,
					"patching_rect" : [ 1089.0, 223.0, 44.0, 18.0 ],
					"presentation" : 1,
					"presentation_rect" : [ 242.0, 128.0, 43.0, 18.0 ],
					"textcolor" : [ 1.0, 1.0, 1.0, 1.0 ],
					"tricolor" : [ 0.223529411764706, 0.23921568627451, 0.258823529411765, 1.0 ],
					"triscale" : 0.5,
					"varname" : "val_amplifier"
				}

			}
, 			{
				"box" : 				{
					"angle" : 270.0,
					"bgcolor" : [ 0.501960784313725, 0.501960784313725, 0.501960784313725, 1.0 ],
					"bordercolor" : [ 0.807843137254902, 0.898039215686275, 0.909803921568627, 0.0 ],
					"id" : "obj-97",
					"maxclass" : "panel",
					"mode" : 0,
					"numinlets" : 1,
					"numoutlets" : 0,
					"patching_rect" : [ 2.0, 233.0, 128.0, 128.0 ],
					"presentation" : 1,
					"presentation_rect" : [ 119.0, 127.0, 231.0, 20.0 ],
					"proportion" : 0.5,
					"rounded" : 2
				}

			}
, 			{
				"box" : 				{
					"fontface" : 1,
					"id" : "obj-90",
					"maxclass" : "comment",
					"numinlets" : 1,
					"numoutlets" : 0,
					"patching_rect" : [ 0.0, 212.0, 152.0, 16.0 ],
					"presentation" : 1,
					"presentation_rect" : [ 119.5, 108.0, 117.0, 16.0 ],
					"text" : "VALUE SETTINGS",
					"textcolor" : [ 0.129411764705882, 0.129411764705882, 0.129411764705882, 1.0 ]
				}

			}
, 			{
				"box" : 				{
					"angle" : 270.0,
					"bgcolor" : [ 0.356862745098039, 0.356862745098039, 0.356862745098039, 1.0 ],
					"bordercolor" : [ 0.807843137254902, 0.898039215686275, 0.909803921568627, 0.0 ],
					"id" : "obj-91",
					"maxclass" : "panel",
					"mode" : 0,
					"numinlets" : 1,
					"numoutlets" : 0,
					"patching_rect" : [ 0.0, 212.0, 128.0, 128.0 ],
					"presentation" : 1,
					"presentation_rect" : [ 119.0, 106.0, 231.0, 20.0 ],
					"proportion" : 0.5,
					"rounded" : 2
				}

			}
, 			{
				"box" : 				{
					"bgcolor" : [ 0.54, 0.54, 0.54, 0.0 ],
					"fontname" : "Consolas",
					"fontsize" : 10.0,
					"format" : 6,
					"htricolor" : [ 0.223529411764706, 0.23921568627451, 0.258823529411765, 1.0 ],
					"id" : "obj-60",
					"maxclass" : "flonum",
					"maximum" : 1.0,
					"minimum" : 0.0,
					"numdecimalplaces" : 3,
					"numinlets" : 1,
					"numoutlets" : 2,
					"outlettype" : [ "", "bang" ],
					"parameter_enable" : 0,
					"patching_rect" : [ 1024.0, 229.0, 44.0, 18.0 ],
					"presentation" : 1,
					"presentation_rect" : [ 242.0, 23.0, 43.0, 18.0 ],
					"textcolor" : [ 1.0, 1.0, 1.0, 1.0 ],
					"tricolor" : [ 0.223529411764706, 0.23921568627451, 0.258823529411765, 1.0 ],
					"triscale" : 0.5,
					"varname" : "matrixamplifier"
				}

			}
, 			{
				"box" : 				{
					"fontface" : 1,
					"id" : "obj-89",
					"maxclass" : "comment",
					"numinlets" : 1,
					"numoutlets" : 0,
					"patching_rect" : [ 2.0, 129.0, 155.0, 16.0 ],
					"presentation" : 1,
					"presentation_rect" : [ 119.0, 24.0, 95.0, 16.0 ],
					"text" : "AMP [ * 100. ]",
					"textcolor" : [ 0.129411764705882, 0.129411764705882, 0.129411764705882, 1.0 ]
				}

			}
, 			{
				"box" : 				{
					"angle" : 270.0,
					"bgcolor" : [ 0.501960784313725, 0.501960784313725, 0.501960784313725, 1.0 ],
					"bordercolor" : [ 0.807843137254902, 0.898039215686275, 0.909803921568627, 0.0 ],
					"id" : "obj-88",
					"maxclass" : "panel",
					"mode" : 0,
					"numinlets" : 1,
					"numoutlets" : 0,
					"patching_rect" : [ 734.0, 1745.0, 128.0, 128.0 ],
					"presentation" : 1,
					"presentation_rect" : [ 119.0, 22.0, 231.0, 20.0 ],
					"proportion" : 0.5,
					"rounded" : 2
				}

			}
, 			{
				"box" : 				{
					"id" : "obj-6",
					"maxclass" : "live.meter~",
					"numinlets" : 1,
					"numoutlets" : 2,
					"orientation" : 1,
					"outlettype" : [ "float", "int" ],
					"patching_rect" : [ 439.0, 408.5, 115.0, 86.0 ],
					"presentation" : 1,
					"presentation_rect" : [ 0.5, 43.0, 118.0, 20.0 ]
				}

			}
, 			{
				"box" : 				{
					"fontface" : 1,
					"id" : "obj-86",
					"maxclass" : "comment",
					"numinlets" : 1,
					"numoutlets" : 0,
					"patching_rect" : [ 606.0, 1499.0, 155.0, 16.0 ],
					"presentation" : 1,
					"presentation_rect" : [ 120.5, 66.0, 64.0, 16.0 ],
					"text" : "SLIDE",
					"textcolor" : [ 0.129411764705882, 0.129411764705882, 0.129411764705882, 1.0 ]
				}

			}
, 			{
				"box" : 				{
					"fontface" : 1,
					"id" : "obj-85",
					"maxclass" : "comment",
					"numinlets" : 1,
					"numoutlets" : 0,
					"patching_rect" : [ 591.0, 1484.0, 151.0, 16.0 ],
					"presentation" : 1,
					"presentation_rect" : [ 121.0, 45.0, 63.0, 16.0 ],
					"text" : "SPEED",
					"textcolor" : [ 0.129411764705882, 0.129411764705882, 0.129411764705882, 1.0 ]
				}

			}
, 			{
				"box" : 				{
					"fontface" : 1,
					"id" : "obj-82",
					"maxclass" : "comment",
					"numinlets" : 1,
					"numoutlets" : 0,
					"patching_rect" : [ 561.0, 1454.0, 153.0, 16.0 ],
					"presentation" : 1,
					"presentation_rect" : [ 119.0, 3.0, 117.0, 16.0 ],
					"text" : "FEEDBACK SETTINGS",
					"textcolor" : [ 0.129411764705882, 0.129411764705882, 0.129411764705882, 1.0 ]
				}

			}
, 			{
				"box" : 				{
					"angle" : 270.0,
					"bgcolor" : [ 0.356862745098039, 0.356862745098039, 0.356862745098039, 1.0 ],
					"bordercolor" : [ 0.807843137254902, 0.898039215686275, 0.909803921568627, 0.0 ],
					"id" : "obj-83",
					"maxclass" : "panel",
					"mode" : 0,
					"numinlets" : 1,
					"numoutlets" : 0,
					"patching_rect" : [ 408.0, 1433.0, 128.0, 128.0 ],
					"presentation" : 1,
					"presentation_rect" : [ 119.0, 1.0, 231.0, 20.0 ],
					"proportion" : 0.5,
					"rounded" : 2
				}

			}
, 			{
				"box" : 				{
					"fontface" : 1,
					"id" : "obj-81",
					"maxclass" : "comment",
					"numinlets" : 1,
					"numoutlets" : 0,
					"patching_rect" : [ 576.0, 1469.0, 151.0, 16.0 ],
					"presentation" : 1,
					"presentation_rect" : [ 0.0, 87.0, 28.0, 16.0 ],
					"text" : "SD",
					"textcolor" : [ 0.129411764705882, 0.129411764705882, 0.129411764705882, 1.0 ]
				}

			}
, 			{
				"box" : 				{
					"fontface" : 1,
					"id" : "obj-79",
					"maxclass" : "comment",
					"numinlets" : 1,
					"numoutlets" : 0,
					"patching_rect" : [ 561.0, 1454.0, 151.0, 16.0 ],
					"presentation" : 1,
					"presentation_rect" : [ 1.0, 66.0, 27.0, 16.0 ],
					"text" : "DIM",
					"textcolor" : [ 0.129411764705882, 0.129411764705882, 0.129411764705882, 1.0 ]
				}

			}
, 			{
				"box" : 				{
					"bgcolor" : [ 0.780392156862745, 0.141176470588235, 0.019607843137255, 0.0 ],
					"fontface" : 0,
					"fontname" : "Consolas",
					"fontsize" : 10.0,
					"htricolor" : [ 0.901960784313726, 0.901960784313726, 0.901960784313726, 1.0 ],
					"id" : "obj-146",
					"maxclass" : "number",
					"minimum" : 1,
					"numinlets" : 1,
					"numoutlets" : 2,
					"outlettype" : [ "", "bang" ],
					"parameter_enable" : 0,
					"patching_rect" : [ 806.0, 181.0, 57.0, 18.0 ],
					"presentation" : 1,
					"presentation_rect" : [ 35.5, 65.0, 48.0, 18.0 ],
					"style" : "dsx.integer",
					"textcolor" : [ 0.901960784313726, 0.901960784313726, 0.901960784313726, 1.0 ],
					"tricolor" : [ 0.901960784313726, 0.901960784313726, 0.901960784313726, 1.0 ],
					"triscale" : 0.5,
					"varname" : "number[3]"
				}

			}
, 			{
				"box" : 				{
					"id" : "obj-76",
					"linecount" : 2,
					"maxclass" : "newobj",
					"numinlets" : 2,
					"numoutlets" : 1,
					"outlettype" : [ "float" ],
					"patching_rect" : [ 1085.0, 261.5, 34.0, 28.0 ],
					"text" : "* 100."
				}

			}
, 			{
				"box" : 				{
					"bgcolor" : [ 0.54, 0.54, 0.54, 0.0 ],
					"fontname" : "Consolas",
					"fontsize" : 10.0,
					"format" : 6,
					"htricolor" : [ 0.223529411764706, 0.23921568627451, 0.258823529411765, 1.0 ],
					"id" : "obj-71",
					"maxclass" : "flonum",
					"maximum" : 1.0,
					"minimum" : 0.0,
					"numdecimalplaces" : 3,
					"numinlets" : 1,
					"numoutlets" : 2,
					"outlettype" : [ "", "bang" ],
					"parameter_enable" : 0,
					"patching_rect" : [ 937.349975000000086, 235.0, 44.0, 18.0 ],
					"presentation" : 1,
					"presentation_rect" : [ 75.0, 86.0, 43.0, 18.0 ],
					"textcolor" : [ 1.0, 1.0, 1.0, 1.0 ],
					"tricolor" : [ 0.223529411764706, 0.23921568627451, 0.258823529411765, 1.0 ],
					"triscale" : 0.5,
					"varname" : "signalslidedown"
				}

			}
, 			{
				"box" : 				{
					"id" : "obj-72",
					"maxclass" : "newobj",
					"numinlets" : 2,
					"numoutlets" : 1,
					"outlettype" : [ "float" ],
					"patching_rect" : [ 937.349975000000086, 267.5, 47.0, 18.0 ],
					"text" : "* 1000."
				}

			}
, 			{
				"box" : 				{
					"bgcolor" : [ 0.54, 0.54, 0.54, 0.0 ],
					"fontname" : "Consolas",
					"fontsize" : 10.0,
					"format" : 6,
					"htricolor" : [ 0.223529411764706, 0.23921568627451, 0.258823529411765, 1.0 ],
					"id" : "obj-70",
					"maxclass" : "flonum",
					"maximum" : 1.0,
					"minimum" : 0.0,
					"numdecimalplaces" : 3,
					"numinlets" : 1,
					"numoutlets" : 2,
					"outlettype" : [ "", "bang" ],
					"parameter_enable" : 0,
					"patching_rect" : [ 852.849975000000086, 245.5, 44.0, 18.0 ],
					"presentation" : 1,
					"presentation_rect" : [ 35.5, 86.0, 42.0, 18.0 ],
					"textcolor" : [ 1.0, 1.0, 1.0, 1.0 ],
					"tricolor" : [ 0.223529411764706, 0.23921568627451, 0.258823529411765, 1.0 ],
					"triscale" : 0.5,
					"varname" : "signalslideup"
				}

			}
, 			{
				"box" : 				{
					"id" : "obj-69",
					"maxclass" : "newobj",
					"numinlets" : 2,
					"numoutlets" : 1,
					"outlettype" : [ "float" ],
					"patching_rect" : [ 852.849975000000086, 278.0, 47.0, 18.0 ],
					"text" : "* 1000."
				}

			}
, 			{
				"box" : 				{
					"id" : "obj-68",
					"maxclass" : "newobj",
					"numinlets" : 1,
					"numoutlets" : 1,
					"outlettype" : [ "open" ],
					"patching_rect" : [ 708.0, 235.0, 41.0, 18.0 ],
					"text" : "t open"
				}

			}
, 			{
				"box" : 				{
					"bgcolor" : [ 0.223529411764706, 0.23921568627451, 0.258823529411765, 1.0 ],
					"bgoncolor" : [ 0.780392156862745, 0.141176470588235, 0.019607843137255, 1.0 ],
					"fontname" : "Consolas",
					"fontsize" : 10.0,
					"id" : "obj-67",
					"legacytextcolor" : 1,
					"maxclass" : "textbutton",
					"numinlets" : 1,
					"numoutlets" : 3,
					"outlettype" : [ "", "", "int" ],
					"parameter_enable" : 0,
					"patching_rect" : [ 423.0, 28.0, 96.0, 20.0 ],
					"presentation" : 1,
					"presentation_rect" : [ 1.0, 22.0, 56.0, 20.0 ],
					"text" : "SETUP",
					"textcolor" : [ 0.90017, 0.90017, 0.90017, 1.0 ],
					"texton" : "SETUP",
					"textoncolor" : [ 0.901960784313726, 0.901960784313726, 0.901960784313726, 1.0 ],
					"textovercolor" : [ 1.0, 1.0, 1.0, 1.0 ],
					"usebgoncolor" : 1,
					"varname" : "textbutton[1]"
				}

			}
, 			{
				"box" : 				{
					"comment" : "signalvalue",
					"id" : "obj-64",
					"index" : 3,
					"maxclass" : "outlet",
					"numinlets" : 1,
					"numoutlets" : 0,
					"patching_rect" : [ 603.0, 988.0, 30.0, 30.0 ]
				}

			}
, 			{
				"box" : 				{
					"comment" : "feedbackmatrix",
					"id" : "obj-63",
					"index" : 2,
					"maxclass" : "outlet",
					"numinlets" : 1,
					"numoutlets" : 0,
					"patching_rect" : [ 569.0, 988.0, 30.0, 30.0 ]
				}

			}
, 			{
				"box" : 				{
					"comment" : "signalmatrix",
					"id" : "obj-62",
					"index" : 1,
					"maxclass" : "outlet",
					"numinlets" : 1,
					"numoutlets" : 0,
					"patching_rect" : [ 537.0, 988.0, 30.0, 30.0 ]
				}

			}
, 			{
				"box" : 				{
					"id" : "obj-61",
					"linecount" : 2,
					"maxclass" : "newobj",
					"numinlets" : 2,
					"numoutlets" : 1,
					"outlettype" : [ "float" ],
					"patching_rect" : [ 1024.0, 261.5, 34.0, 28.0 ],
					"text" : "* 100."
				}

			}
, 			{
				"box" : 				{
					"bgcolor" : [ 0.54, 0.54, 0.54, 0.0 ],
					"fontname" : "Consolas",
					"fontsize" : 10.0,
					"format" : 6,
					"htricolor" : [ 0.223529411764706, 0.23921568627451, 0.258823529411765, 1.0 ],
					"id" : "obj-53",
					"maxclass" : "flonum",
					"maximum" : 1.0,
					"minimum" : 0.0,
					"numdecimalplaces" : 3,
					"numinlets" : 1,
					"numoutlets" : 2,
					"outlettype" : [ "", "bang" ],
					"parameter_enable" : 0,
					"patching_rect" : [ 886.813598000000184, 764.5, 44.0, 18.0 ],
					"presentation" : 1,
					"presentation_rect" : [ 293.0, 65.0, 43.0, 18.0 ],
					"textcolor" : [ 1.0, 1.0, 1.0, 1.0 ],
					"tricolor" : [ 0.223529411764706, 0.23921568627451, 0.258823529411765, 1.0 ],
					"triscale" : 0.5,
					"varname" : "fbsliddown"
				}

			}
, 			{
				"box" : 				{
					"bgcolor" : [ 0.54, 0.54, 0.54, 0.0 ],
					"fontname" : "Consolas",
					"fontsize" : 10.0,
					"format" : 6,
					"htricolor" : [ 0.223529411764706, 0.23921568627451, 0.258823529411765, 1.0 ],
					"id" : "obj-54",
					"maxclass" : "flonum",
					"maximum" : 1.0,
					"minimum" : 0.0,
					"numdecimalplaces" : 3,
					"numinlets" : 1,
					"numoutlets" : 2,
					"outlettype" : [ "", "bang" ],
					"parameter_enable" : 0,
					"patching_rect" : [ 736.349975000000086, 764.5, 44.0, 18.0 ],
					"presentation" : 1,
					"presentation_rect" : [ 242.0, 65.0, 43.0, 18.0 ],
					"textcolor" : [ 1.0, 1.0, 1.0, 1.0 ],
					"tricolor" : [ 0.223529411764706, 0.23921568627451, 0.258823529411765, 1.0 ],
					"triscale" : 0.5,
					"varname" : "fbslideup"
				}

			}
, 			{
				"box" : 				{
					"id" : "obj-56",
					"maxclass" : "newobj",
					"numinlets" : 6,
					"numoutlets" : 1,
					"outlettype" : [ "" ],
					"patching_rect" : [ 886.813598000000184, 804.5, 107.0, 18.0 ],
					"text" : "scale 0. 1. 1. 20."
				}

			}
, 			{
				"box" : 				{
					"id" : "obj-19",
					"maxclass" : "newobj",
					"numinlets" : 6,
					"numoutlets" : 1,
					"outlettype" : [ "" ],
					"patching_rect" : [ 736.349975000000086, 804.5, 107.0, 18.0 ],
					"text" : "scale 0. 1. 1. 20."
				}

			}
, 			{
				"box" : 				{
					"fontname" : "Consolas",
					"fontsize" : 10.0,
					"id" : "obj-58",
					"maxclass" : "message",
					"numinlets" : 2,
					"numoutlets" : 1,
					"outlettype" : [ "" ],
					"patching_rect" : [ 886.813598000000184, 832.0, 82.0, 18.0 ],
					"text" : "slide_down $1"
				}

			}
, 			{
				"box" : 				{
					"fontname" : "Consolas",
					"fontsize" : 10.0,
					"id" : "obj-59",
					"maxclass" : "message",
					"numinlets" : 2,
					"numoutlets" : 1,
					"outlettype" : [ "" ],
					"patching_rect" : [ 736.349975000000086, 832.0, 71.0, 18.0 ],
					"text" : "slide_up $1"
				}

			}
, 			{
				"box" : 				{
					"fontname" : "Consolas",
					"fontsize" : 10.0,
					"id" : "obj-12",
					"maxclass" : "newobj",
					"numinlets" : 1,
					"numoutlets" : 2,
					"outlettype" : [ "jit_matrix", "" ],
					"patching_rect" : [ 736.349975000000086, 887.0, 280.0, 18.0 ],
					"text" : "jit.slide @type float32 @slide_down 1 @slide_up 1"
				}

			}
, 			{
				"box" : 				{
					"bgcolor" : [ 0.54, 0.54, 0.54, 0.0 ],
					"fontname" : "Consolas",
					"fontsize" : 10.0,
					"format" : 6,
					"htricolor" : [ 0.223529411764706, 0.23921568627451, 0.258823529411765, 1.0 ],
					"id" : "obj-40",
					"maxclass" : "flonum",
					"maximum" : 1.0,
					"minimum" : 0.0,
					"numdecimalplaces" : 3,
					"numinlets" : 1,
					"numoutlets" : 2,
					"outlettype" : [ "", "bang" ],
					"parameter_enable" : 0,
					"patching_rect" : [ 469.625, 603.0, 44.0, 18.0 ],
					"presentation" : 1,
					"presentation_rect" : [ 242.0, 44.0, 43.0, 18.0 ],
					"textcolor" : [ 1.0, 1.0, 1.0, 1.0 ],
					"tricolor" : [ 0.223529411764706, 0.23921568627451, 0.258823529411765, 1.0 ],
					"triscale" : 0.5,
					"varname" : "fbspeed"
				}

			}
, 			{
				"box" : 				{
					"id" : "obj-18",
					"maxclass" : "newobj",
					"numinlets" : 6,
					"numoutlets" : 1,
					"outlettype" : [ "" ],
					"patching_rect" : [ 469.625, 637.5, 114.375, 18.0 ],
					"text" : "scale 0. 1. 1 16"
				}

			}
, 			{
				"box" : 				{
					"fontname" : "Geneva",
					"fontsize" : 10.0,
					"id" : "obj-41",
					"maxclass" : "newobj",
					"numinlets" : 1,
					"numoutlets" : 1,
					"outlettype" : [ "" ],
					"patching_rect" : [ 190.0, 640.0, 103.0, 21.0 ],
					"text" : "loadmess getname"
				}

			}
, 			{
				"box" : 				{
					"fontname" : "Geneva",
					"fontsize" : 10.0,
					"id" : "obj-42",
					"maxclass" : "newobj",
					"numinlets" : 2,
					"numoutlets" : 2,
					"outlettype" : [ "", "" ],
					"patching_rect" : [ 463.0, 783.0, 121.0, 21.0 ],
					"text" : "substitute name name"
				}

			}
, 			{
				"box" : 				{
					"fontname" : "Geneva",
					"fontsize" : 10.0,
					"id" : "obj-52",
					"maxclass" : "newobj",
					"numinlets" : 2,
					"numoutlets" : 2,
					"outlettype" : [ "", "" ],
					"patching_rect" : [ 263.0, 950.0, 56.0, 21.0 ],
					"text" : "zl change"
				}

			}
, 			{
				"box" : 				{
					"fontname" : "Geneva",
					"fontsize" : 10.0,
					"id" : "obj-43",
					"maxclass" : "newobj",
					"numinlets" : 1,
					"numoutlets" : 2,
					"outlettype" : [ "", "" ],
					"patching_rect" : [ 162.0, 783.0, 58.0, 21.0 ],
					"text" : "t l getdim"
				}

			}
, 			{
				"box" : 				{
					"bgcolor" : [ 0.866667, 0.866667, 0.866667, 0.0 ],
					"bgfillcolor_angle" : 270.0,
					"bgfillcolor_autogradient" : 0.79,
					"bgfillcolor_color" : [ 0.290196, 0.309804, 0.301961, 1.0 ],
					"bgfillcolor_color1" : [ 0.866667, 0.866667, 0.866667, 0.0 ],
					"bgfillcolor_color2" : [ 0.685, 0.685, 0.685, 1.0 ],
					"bgfillcolor_proportion" : 0.39,
					"bgfillcolor_type" : "gradient",
					"fontname" : "Consolas",
					"fontsize" : 10.0,
					"gradient" : 0,
					"id" : "obj-44",
					"maxclass" : "message",
					"numinlets" : 2,
					"numoutlets" : 1,
					"outlettype" : [ "" ],
					"patching_rect" : [ 233.0, 993.0, 49.0, 18.0 ],
					"presentation" : 1,
					"presentation_rect" : [ 1772.0, 557.0, 31.0, 18.0 ],
					"text" : "64",
					"textcolor" : [ 0.90017, 0.90017, 0.90017, 1.0 ]
				}

			}
, 			{
				"box" : 				{
					"fontname" : "Geneva",
					"fontsize" : 10.0,
					"id" : "obj-45",
					"maxclass" : "newobj",
					"numinlets" : 2,
					"numoutlets" : 2,
					"outlettype" : [ "", "" ],
					"patching_rect" : [ 263.0, 913.0, 57.0, 21.0 ],
					"text" : "route dim"
				}

			}
, 			{
				"box" : 				{
					"fontname" : "Geneva",
					"fontsize" : 10.0,
					"id" : "obj-46",
					"maxclass" : "newobj",
					"numinlets" : 2,
					"numoutlets" : 1,
					"outlettype" : [ "int" ],
					"patching_rect" : [ 469.625, 665.5, 32.5, 21.0 ],
					"text" : "int"
				}

			}
, 			{
				"box" : 				{
					"fontname" : "Arial",
					"fontsize" : 11.0,
					"id" : "obj-47",
					"maxclass" : "newobj",
					"numinlets" : 1,
					"numoutlets" : 2,
					"outlettype" : [ "jit_matrix", "" ],
					"patching_rect" : [ 162.0, 940.0, 51.0, 21.0 ],
					"text" : "jit.matrix"
				}

			}
, 			{
				"box" : 				{
					"fontname" : "Arial",
					"fontsize" : 11.0,
					"id" : "obj-48",
					"maxclass" : "message",
					"numinlets" : 2,
					"numoutlets" : 1,
					"outlettype" : [ "" ],
					"patching_rect" : [ 266.0, 816.0, 64.0, 21.0 ],
					"text" : "offset_x $1"
				}

			}
, 			{
				"box" : 				{
					"fontname" : "Arial",
					"fontsize" : 11.0,
					"id" : "obj-49",
					"maxclass" : "newobj",
					"numinlets" : 1,
					"numoutlets" : 2,
					"outlettype" : [ "jit_matrix", "" ],
					"patching_rect" : [ 162.0, 859.0, 40.0, 21.0 ],
					"text" : "jit.rota"
				}

			}
, 			{
				"box" : 				{
					"fontname" : "Arial",
					"fontsize" : 11.0,
					"id" : "obj-50",
					"maxclass" : "message",
					"numinlets" : 2,
					"numoutlets" : 1,
					"outlettype" : [ "" ],
					"patching_rect" : [ 186.0, 708.0, 77.0, 21.0 ],
					"text" : "dstdimend $1"
				}

			}
, 			{
				"box" : 				{
					"fontname" : "Arial",
					"fontsize" : 11.0,
					"id" : "obj-51",
					"maxclass" : "newobj",
					"numinlets" : 1,
					"numoutlets" : 2,
					"outlettype" : [ "jit_matrix", "" ],
					"patching_rect" : [ 162.0, 742.0, 320.0, 21.0 ],
					"text" : "jit.matrix 1 float32 128 @adapt 1 @usedstdim 1 @dstdimstart 0"
				}

			}
, 			{
				"box" : 				{
					"id" : "obj-39",
					"maxclass" : "newobj",
					"numinlets" : 2,
					"numoutlets" : 1,
					"outlettype" : [ "float" ],
					"patching_rect" : [ 959.0, 419.5, 47.0, 18.0 ],
					"text" : "* 10."
				}

			}
, 			{
				"box" : 				{
					"id" : "obj-38",
					"linecount" : 2,
					"maxclass" : "newobj",
					"numinlets" : 1,
					"numoutlets" : 2,
					"outlettype" : [ "bang", "bang" ],
					"patching_rect" : [ 435.0, 156.0, 26.0, 28.0 ],
					"text" : "t b b"
				}

			}
, 			{
				"box" : 				{
					"id" : "obj-37",
					"maxclass" : "newobj",
					"numinlets" : 0,
					"numoutlets" : 1,
					"outlettype" : [ "" ],
					"patching_rect" : [ 435.0, 113.0, 42.0, 18.0 ],
					"text" : "r draw"
				}

			}
, 			{
				"box" : 				{
					"id" : "obj-33",
					"maxclass" : "newobj",
					"numinlets" : 2,
					"numoutlets" : 1,
					"outlettype" : [ "float" ],
					"patching_rect" : [ 959.0, 383.0, 74.0, 18.0 ],
					"text" : "snapshot~ 0"
				}

			}
, 			{
				"box" : 				{
					"fontname" : "Geneva",
					"fontsize" : 10.0,
					"id" : "obj-9",
					"maxclass" : "newobj",
					"numinlets" : 1,
					"numoutlets" : 3,
					"outlettype" : [ "", "", "" ],
					"patching_rect" : [ 763.349975000000086, 109.0, 218.0, 21.0 ],
					"restore" : [ 64 ],
					"saved_object_attributes" : 					{
						"parameter_enable" : 0,
						"parameter_mappable" : 0
					}
,
					"text" : "pattr CatchFrameSize @default_interp off",
					"varname" : "CatchFrameSize"
				}

			}
, 			{
				"box" : 				{
					"fontname" : "Arial",
					"fontsize" : 11.0,
					"id" : "obj-36",
					"maxclass" : "newobj",
					"numinlets" : 1,
					"numoutlets" : 2,
					"outlettype" : [ "jit_matrix", "" ],
					"patching_rect" : [ 651.0, 418.5, 188.0, 21.0 ],
					"text" : "jit.catch~ @framesize 256 @mode 2"
				}

			}
, 			{
				"box" : 				{
					"id" : "obj-30",
					"linecount" : 2,
					"maxclass" : "newobj",
					"numinlets" : 1,
					"numoutlets" : 3,
					"outlettype" : [ "", "", "" ],
					"patching_rect" : [ 569.0, 94.0, 60.0, 28.0 ],
					"restore" : [ 0 ],
					"saved_object_attributes" : 					{
						"parameter_enable" : 0,
						"parameter_mappable" : 0
					}
,
					"text" : "pattr enable",
					"varname" : "enable"
				}

			}
, 			{
				"box" : 				{
					"id" : "obj-23",
					"maxclass" : "jit.pwindow",
					"numinlets" : 1,
					"numoutlets" : 2,
					"outlettype" : [ "jit_matrix", "" ],
					"patching_rect" : [ 736.349975000000086, 925.0, 760.0, 10.0 ],
					"presentation" : 1,
					"presentation_rect" : [ 119.0, 85.0, 231.0, 20.0 ],
					"sync" : 1
				}

			}
, 			{
				"box" : 				{
					"id" : "obj-20",
					"maxclass" : "newobj",
					"numinlets" : 1,
					"numoutlets" : 1,
					"outlettype" : [ "signal" ],
					"patching_rect" : [ 616.0, 305.0, 35.0, 18.0 ],
					"text" : "abs~"
				}

			}
, 			{
				"box" : 				{
					"id" : "obj-17",
					"maxclass" : "newobj",
					"numinlets" : 2,
					"numoutlets" : 2,
					"outlettype" : [ "jit_matrix", "" ],
					"patching_rect" : [ 651.0, 455.0, 118.0, 18.0 ],
					"text" : "jit.op @op * @val 10"
				}

			}
, 			{
				"box" : 				{
					"id" : "obj-13",
					"maxclass" : "newobj",
					"numinlets" : 3,
					"numoutlets" : 1,
					"outlettype" : [ "signal" ],
					"patching_rect" : [ 616.0, 338.5, 100.0, 18.0 ],
					"text" : "slide~ 3000 2000"
				}

			}
, 			{
				"box" : 				{
					"id" : "obj-1",
					"maxclass" : "newobj",
					"numinlets" : 1,
					"numoutlets" : 2,
					"outlettype" : [ "signal", "signal" ],
					"patching_rect" : [ 616.0, 278.0, 35.0, 18.0 ],
					"text" : "adc~"
				}

			}
, 			{
				"box" : 				{
					"angle" : 270.0,
					"bgcolor" : [ 0.501960784313725, 0.501960784313725, 0.501960784313725, 1.0 ],
					"bordercolor" : [ 0.807843137254902, 0.898039215686275, 0.909803921568627, 0.0 ],
					"id" : "obj-78",
					"maxclass" : "panel",
					"mode" : 0,
					"numinlets" : 1,
					"numoutlets" : 0,
					"patching_rect" : [ 427.0, 1640.0, 128.0, 128.0 ],
					"presentation" : 1,
					"presentation_rect" : [ 1.0, 85.0, 117.0, 20.0 ],
					"proportion" : 0.5,
					"rounded" : 2
				}

			}
, 			{
				"box" : 				{
					"fontface" : 1,
					"id" : "obj-116",
					"maxclass" : "comment",
					"numinlets" : 1,
					"numoutlets" : 0,
					"patching_rect" : [ 546.0, 1439.0, 152.0, 16.0 ],
					"presentation" : 1,
					"presentation_rect" : [ 1.0, 3.0, 103.0, 16.0 ],
					"text" : "SIGNAL SETTINGS",
					"textcolor" : [ 0.129411764705882, 0.129411764705882, 0.129411764705882, 1.0 ]
				}

			}
, 			{
				"box" : 				{
					"angle" : 270.0,
					"bgcolor" : [ 0.356862745098039, 0.356862745098039, 0.356862745098039, 1.0 ],
					"bordercolor" : [ 0.807843137254902, 0.898039215686275, 0.909803921568627, 0.0 ],
					"id" : "obj-117",
					"maxclass" : "panel",
					"mode" : 0,
					"numinlets" : 1,
					"numoutlets" : 0,
					"patching_rect" : [ 393.0, 1418.0, 128.0, 128.0 ],
					"presentation" : 1,
					"presentation_rect" : [ 1.0, 1.0, 117.0, 20.0 ],
					"proportion" : 0.5,
					"rounded" : 2
				}

			}
, 			{
				"box" : 				{
					"angle" : 270.0,
					"bgcolor" : [ 0.501960784313725, 0.501960784313725, 0.501960784313725, 1.0 ],
					"bordercolor" : [ 0.807843137254902, 0.898039215686275, 0.909803921568627, 0.0 ],
					"id" : "obj-66",
					"maxclass" : "panel",
					"mode" : 0,
					"numinlets" : 1,
					"numoutlets" : 0,
					"patching_rect" : [ 412.0, 1625.0, 128.0, 128.0 ],
					"presentation" : 1,
					"presentation_rect" : [ 1.0, 64.0, 117.0, 20.0 ],
					"proportion" : 0.5,
					"rounded" : 2
				}

			}
, 			{
				"box" : 				{
					"angle" : 270.0,
					"bgcolor" : [ 0.501960784313725, 0.501960784313725, 0.501960784313725, 1.0 ],
					"bordercolor" : [ 0.807843137254902, 0.898039215686275, 0.909803921568627, 0.0 ],
					"id" : "obj-84",
					"maxclass" : "panel",
					"mode" : 0,
					"numinlets" : 1,
					"numoutlets" : 0,
					"patching_rect" : [ 427.0, 1640.0, 128.0, 128.0 ],
					"presentation" : 1,
					"presentation_rect" : [ 119.0, 43.0, 231.0, 20.0 ],
					"proportion" : 0.5,
					"rounded" : 2
				}

			}
, 			{
				"box" : 				{
					"angle" : 270.0,
					"bgcolor" : [ 0.501960784313725, 0.501960784313725, 0.501960784313725, 1.0 ],
					"bordercolor" : [ 0.807843137254902, 0.898039215686275, 0.909803921568627, 0.0 ],
					"id" : "obj-87",
					"maxclass" : "panel",
					"mode" : 0,
					"numinlets" : 1,
					"numoutlets" : 0,
					"patching_rect" : [ 442.0, 1655.0, 128.0, 128.0 ],
					"presentation" : 1,
					"presentation_rect" : [ 119.0, 64.0, 231.0, 20.0 ],
					"proportion" : 0.5,
					"rounded" : 2
				}

			}
 ],
		"lines" : [ 			{
				"patchline" : 				{
					"destination" : [ "obj-20", 0 ],
					"source" : [ "obj-1", 0 ]
				}

			}
, 			{
				"patchline" : 				{
					"destination" : [ "obj-23", 0 ],
					"order" : 0,
					"source" : [ "obj-12", 0 ]
				}

			}
, 			{
				"patchline" : 				{
					"destination" : [ "obj-63", 0 ],
					"order" : 1,
					"source" : [ "obj-12", 0 ]
				}

			}
, 			{
				"patchline" : 				{
					"destination" : [ "obj-33", 0 ],
					"order" : 0,
					"source" : [ "obj-13", 0 ]
				}

			}
, 			{
				"patchline" : 				{
					"destination" : [ "obj-36", 0 ],
					"order" : 1,
					"source" : [ "obj-13", 0 ]
				}

			}
, 			{
				"patchline" : 				{
					"destination" : [ "obj-6", 0 ],
					"order" : 2,
					"source" : [ "obj-13", 0 ]
				}

			}
, 			{
				"patchline" : 				{
					"destination" : [ "obj-16", 0 ],
					"source" : [ "obj-14", 0 ]
				}

			}
, 			{
				"patchline" : 				{
					"destination" : [ "obj-2", 0 ],
					"source" : [ "obj-146", 0 ]
				}

			}
, 			{
				"patchline" : 				{
					"destination" : [ "obj-21", 0 ],
					"source" : [ "obj-15", 0 ]
				}

			}
, 			{
				"patchline" : 				{
					"destination" : [ "obj-5", 2 ],
					"source" : [ "obj-16", 0 ]
				}

			}
, 			{
				"patchline" : 				{
					"destination" : [ "obj-3", 0 ],
					"order" : 0,
					"source" : [ "obj-17", 0 ]
				}

			}
, 			{
				"patchline" : 				{
					"destination" : [ "obj-51", 0 ],
					"order" : 2,
					"source" : [ "obj-17", 0 ]
				}

			}
, 			{
				"patchline" : 				{
					"destination" : [ "obj-62", 0 ],
					"order" : 1,
					"source" : [ "obj-17", 0 ]
				}

			}
, 			{
				"patchline" : 				{
					"destination" : [ "obj-46", 0 ],
					"source" : [ "obj-18", 0 ]
				}

			}
, 			{
				"patchline" : 				{
					"destination" : [ "obj-59", 0 ],
					"source" : [ "obj-19", 0 ]
				}

			}
, 			{
				"patchline" : 				{
					"destination" : [ "obj-36", 0 ],
					"source" : [ "obj-2", 0 ]
				}

			}
, 			{
				"patchline" : 				{
					"destination" : [ "obj-13", 0 ],
					"source" : [ "obj-20", 0 ]
				}

			}
, 			{
				"patchline" : 				{
					"destination" : [ "obj-5", 1 ],
					"source" : [ "obj-21", 0 ]
				}

			}
, 			{
				"patchline" : 				{
					"destination" : [ "obj-39", 0 ],
					"source" : [ "obj-33", 0 ]
				}

			}
, 			{
				"patchline" : 				{
					"destination" : [ "obj-17", 0 ],
					"source" : [ "obj-36", 0 ]
				}

			}
, 			{
				"patchline" : 				{
					"destination" : [ "obj-38", 0 ],
					"source" : [ "obj-37", 0 ]
				}

			}
, 			{
				"patchline" : 				{
					"destination" : [ "obj-33", 0 ],
					"order" : 0,
					"source" : [ "obj-38", 0 ]
				}

			}
, 			{
				"patchline" : 				{
					"destination" : [ "obj-36", 0 ],
					"order" : 1,
					"source" : [ "obj-38", 0 ]
				}

			}
, 			{
				"patchline" : 				{
					"destination" : [ "obj-4", 0 ],
					"order" : 1,
					"source" : [ "obj-39", 0 ]
				}

			}
, 			{
				"patchline" : 				{
					"destination" : [ "obj-5", 0 ],
					"order" : 0,
					"source" : [ "obj-39", 0 ]
				}

			}
, 			{
				"patchline" : 				{
					"destination" : [ "obj-18", 0 ],
					"source" : [ "obj-40", 0 ]
				}

			}
, 			{
				"patchline" : 				{
					"destination" : [ "obj-51", 0 ],
					"midpoints" : [ 199.5, 677.0, 171.5, 677.0 ],
					"source" : [ "obj-41", 0 ]
				}

			}
, 			{
				"patchline" : 				{
					"destination" : [ "obj-47", 0 ],
					"source" : [ "obj-42", 0 ]
				}

			}
, 			{
				"patchline" : 				{
					"destination" : [ "obj-49", 0 ],
					"source" : [ "obj-43", 1 ]
				}

			}
, 			{
				"patchline" : 				{
					"destination" : [ "obj-49", 0 ],
					"source" : [ "obj-43", 0 ]
				}

			}
, 			{
				"patchline" : 				{
					"destination" : [ "obj-52", 0 ],
					"source" : [ "obj-45", 0 ]
				}

			}
, 			{
				"patchline" : 				{
					"destination" : [ "obj-48", 0 ],
					"midpoints" : [ 479.125, 707.5, 275.5, 707.5 ],
					"order" : 0,
					"source" : [ "obj-46", 0 ]
				}

			}
, 			{
				"patchline" : 				{
					"destination" : [ "obj-50", 0 ],
					"midpoints" : [ 479.125, 700.5, 195.5, 700.5 ],
					"order" : 1,
					"source" : [ "obj-46", 0 ]
				}

			}
, 			{
				"patchline" : 				{
					"destination" : [ "obj-49", 0 ],
					"midpoints" : [ 275.5, 846.0, 171.5, 846.0 ],
					"source" : [ "obj-48", 0 ]
				}

			}
, 			{
				"patchline" : 				{
					"destination" : [ "obj-45", 0 ],
					"midpoints" : [ 192.5, 891.5, 272.5, 891.5 ],
					"source" : [ "obj-49", 1 ]
				}

			}
, 			{
				"patchline" : 				{
					"destination" : [ "obj-47", 0 ],
					"source" : [ "obj-49", 0 ]
				}

			}
, 			{
				"patchline" : 				{
					"destination" : [ "obj-64", 0 ],
					"source" : [ "obj-5", 0 ]
				}

			}
, 			{
				"patchline" : 				{
					"destination" : [ "obj-51", 0 ],
					"source" : [ "obj-50", 0 ]
				}

			}
, 			{
				"patchline" : 				{
					"destination" : [ "obj-12", 0 ],
					"midpoints" : [ 171.5, 774.0, 450.0, 774.0, 450.0, 900.0, 745.849975000000086, 900.0 ],
					"order" : 0,
					"source" : [ "obj-51", 0 ]
				}

			}
, 			{
				"patchline" : 				{
					"destination" : [ "obj-42", 0 ],
					"source" : [ "obj-51", 1 ]
				}

			}
, 			{
				"patchline" : 				{
					"destination" : [ "obj-43", 0 ],
					"order" : 1,
					"source" : [ "obj-51", 0 ]
				}

			}
, 			{
				"patchline" : 				{
					"destination" : [ "obj-44", 1 ],
					"source" : [ "obj-52", 0 ]
				}

			}
, 			{
				"patchline" : 				{
					"destination" : [ "obj-56", 0 ],
					"source" : [ "obj-53", 0 ]
				}

			}
, 			{
				"patchline" : 				{
					"destination" : [ "obj-19", 0 ],
					"source" : [ "obj-54", 0 ]
				}

			}
, 			{
				"patchline" : 				{
					"destination" : [ "obj-58", 0 ],
					"source" : [ "obj-56", 0 ]
				}

			}
, 			{
				"patchline" : 				{
					"destination" : [ "obj-12", 0 ],
					"midpoints" : [ 896.313598000000184, 867.0, 745.849975000000086, 867.0 ],
					"source" : [ "obj-58", 0 ]
				}

			}
, 			{
				"patchline" : 				{
					"destination" : [ "obj-12", 0 ],
					"midpoints" : [ 745.849975000000086, 867.0, 745.849975000000086, 867.0 ],
					"source" : [ "obj-59", 0 ]
				}

			}
, 			{
				"patchline" : 				{
					"destination" : [ "obj-61", 0 ],
					"source" : [ "obj-60", 0 ]
				}

			}
, 			{
				"patchline" : 				{
					"destination" : [ "obj-17", 1 ],
					"source" : [ "obj-61", 0 ]
				}

			}
, 			{
				"patchline" : 				{
					"destination" : [ "obj-68", 0 ],
					"source" : [ "obj-67", 0 ]
				}

			}
, 			{
				"patchline" : 				{
					"destination" : [ "obj-1", 0 ],
					"source" : [ "obj-68", 0 ]
				}

			}
, 			{
				"patchline" : 				{
					"destination" : [ "obj-13", 1 ],
					"source" : [ "obj-69", 0 ]
				}

			}
, 			{
				"patchline" : 				{
					"destination" : [ "obj-69", 0 ],
					"source" : [ "obj-70", 0 ]
				}

			}
, 			{
				"patchline" : 				{
					"destination" : [ "obj-72", 0 ],
					"source" : [ "obj-71", 0 ]
				}

			}
, 			{
				"patchline" : 				{
					"destination" : [ "obj-13", 2 ],
					"source" : [ "obj-72", 0 ]
				}

			}
, 			{
				"patchline" : 				{
					"destination" : [ "obj-76", 0 ],
					"source" : [ "obj-73", 0 ]
				}

			}
, 			{
				"patchline" : 				{
					"destination" : [ "obj-39", 1 ],
					"source" : [ "obj-76", 0 ]
				}

			}
, 			{
				"patchline" : 				{
					"destination" : [ "obj-146", 0 ],
					"source" : [ "obj-9", 1 ]
				}

			}
 ],
		"styles" : [ 			{
				"name" : "dsx.comment.left",
				"default" : 				{
					"clearcolor" : [ 0.862745098039216, 0.870588235294118, 0.87843137254902, 1.0 ],
					"fontname" : [ "Geneva" ],
					"fontsize" : [ 9.0 ],
					"textcolor" : [ 0.223529411764706, 0.23921568627451, 0.258823529411765, 1.0 ]
				}
,
				"parentstyle" : "",
				"multi" : 0
			}
, 			{
				"name" : "dsx.integer",
				"default" : 				{
					"accentcolor" : [ 0.75, 0.75, 0.75, 1.0 ],
					"bgcolor" : [ 0.8, 0.8, 0.8, 0.0 ],
					"fontname" : [ "Consolas" ],
					"fontsize" : [ 10.0 ],
					"selectioncolor" : [ 0.87, 0.82, 0.24, 1.0 ],
					"textcolor_inverse" : [ 0.780392156862745, 0.141176470588235, 0.019607843137255, 1.0 ]
				}
,
				"parentstyle" : "",
				"multi" : 0
			}
 ]
	}

}
