{
	"patcher" : 	{
		"fileversion" : 1,
		"appversion" : 		{
			"major" : 9,
			"minor" : 0,
			"revision" : 4,
			"architecture" : "x64",
			"modernui" : 1
		}
,
		"classnamespace" : "jit.gen",
		"rect" : [ 340.0, 338.0, 1230.0, 889.0 ],
		"gridsize" : [ 15.0, 15.0 ],
		"boxes" : [ 			{
				"box" : 				{
					"id" : "obj-5",
					"maxclass" : "newobj",
					"numinlets" : 0,
					"numoutlets" : 1,
					"outlettype" : [ "" ],
					"patching_rect" : [ 1040.0, 34.0, 28.0, 22.0 ],
					"text" : "in 4"
				}

			}
, 			{
				"box" : 				{
					"id" : "obj-4",
					"maxclass" : "newobj",
					"numinlets" : 0,
					"numoutlets" : 1,
					"outlettype" : [ "" ],
					"patching_rect" : [ 731.0, 3.0, 111.0, 22.0 ],
					"text" : "param blendsource"
				}

			}
, 			{
				"box" : 				{
					"id" : "obj-3",
					"maxclass" : "newobj",
					"numinlets" : 4,
					"numoutlets" : 1,
					"outlettype" : [ "" ],
					"patching_rect" : [ 731.0, 61.0, 328.0, 22.0 ],
					"text" : "selector 3"
				}

			}
, 			{
				"box" : 				{
					"id" : "obj-2",
					"maxclass" : "newobj",
					"numinlets" : 0,
					"numoutlets" : 1,
					"outlettype" : [ "" ],
					"patching_rect" : [ 834.0, 34.0, 28.0, 22.0 ],
					"text" : "in 2"
				}

			}
, 			{
				"box" : 				{
					"code" : "\r\nalpha(in1,in2,b) {\r\n\tf1 = 1-in1.a * b;\t\r\n\tf2 = 1-in2.a * b;\t\r\n\tf3 = mix(in1,in2, f1);\r\n\tf4 = mix(in1,in2, f2);\t\r\n\tf5 = mix(in1,f3,b*2);\t\r\n\tf6 = mix(in2,f4,b*2);\r\n\tblend = clip(mix(f5,f6,b),0,1);\r\n\treturn blend;\r\n\t}\r\n\t\r\nscreen(in1,in2,b) {\r\n\tt1 = in1;\t\r\n\tt2 = 1-((1-in1)*(1-in2));\t\r\n\tt3 = mix(t1,t2,b);\r\n\tblend = clip(t3,0,1);\r\n\treturn blend;\r\n\t}\r\n\t\r\nminim(in1,in2,b) {\r\n\tt1 = in1;\r\n\tt2 = in2;\r\n\tt3 = min(t1,t2);\r\n\tblend = mix(t1,t3,b);\r\n\treturn clip(blend,0,1);\r\n\t}\r\n\t\r\nmultiply(in1,in2,b) {\t\r\n\tf1 = in1 * in2;\r\n\tf2 = mix(in1,f1,b*2);\r\n\tf3 = mix(in2,f1,(1-b)*2);\t\r\n\tf4 = mix(f2,f3,b);\r\n\tblend = clip(f4,0,1);\r\n\treturn blend;\r\n\t}\r\n\t\r\ndifference(in1,in2,b) {\r\n\r\n\tf1 = in1;\r\n\tf2 = absdiff(in1,in2);\r\n\t\r\n\tblend = clip(mix(f1,f2,b),0,1);\r\n\treturn blend;\r\n\t}\r\n\r\nalpham(i1,i2,b) {\r\n\tf1 = i1;\r\n\tf2 = i2;\r\n\tblend = mix(i1,i2,b*i2.a);\r\n\treturn blend;\r\n\t}\r\n\r\nmaxim(in1,in2,b) {\r\n\tf1 = in1;\r\n\tf2 = max(in1,in2);\r\n\tblend = mix(f1,f2,b);\r\n\treturn blend;\r\n\t}\r\n\r\nParam blendmode;\r\nParam blendamount;\r\n\r\n\r\nalphablend = alpha(in1,in2,blendamount);\r\nscreenblend = screen(in1,in2,blendamount);\r\nmultblend = multiply(in1,in2,blendamount);\r\ndiffblend = difference(in1,in2,blendamount);\r\nalphamask = alpham(in1,in2,blendamount);\r\nmaxblend = maxim(in1,in2,blendamount);\r\nminblend = minim(in1,in2,blendamount);\r\n\r\n\r\nfinal = selector(blendmode,maxblend,screenblend,multblend,diffblend,minblend,alphamask);\r\n\r\nout1 = final;",
					"fontface" : 0,
					"fontname" : "<Monospaced>",
					"fontsize" : 11.0,
					"id" : "obj-1",
					"maxclass" : "codebox",
					"numinlets" : 2,
					"numoutlets" : 1,
					"outlettype" : [ "" ],
					"patching_rect" : [ 38.0, 96.0, 712.0, 748.0 ]
				}

			}
, 			{
				"box" : 				{
					"id" : "obj-28",
					"maxclass" : "newobj",
					"numinlets" : 0,
					"numoutlets" : 1,
					"outlettype" : [ "" ],
					"patching_rect" : [ 38.0, 11.0, 30.0, 22.0 ],
					"text" : "in 1"
				}

			}
, 			{
				"box" : 				{
					"id" : "obj-29",
					"maxclass" : "newobj",
					"numinlets" : 0,
					"numoutlets" : 1,
					"outlettype" : [ "" ],
					"patching_rect" : [ 937.0, 34.0, 28.0, 22.0 ],
					"text" : "in 3"
				}

			}
, 			{
				"box" : 				{
					"id" : "obj-11",
					"maxclass" : "newobj",
					"numinlets" : 1,
					"numoutlets" : 0,
					"patching_rect" : [ 38.0, 866.0, 27.0, 22.0 ],
					"text" : "out"
				}

			}
 ],
		"lines" : [ 			{
				"patchline" : 				{
					"destination" : [ "obj-11", 0 ],
					"source" : [ "obj-1", 0 ]
				}

			}
, 			{
				"patchline" : 				{
					"destination" : [ "obj-3", 1 ],
					"source" : [ "obj-2", 0 ]
				}

			}
, 			{
				"patchline" : 				{
					"destination" : [ "obj-1", 0 ],
					"source" : [ "obj-28", 0 ]
				}

			}
, 			{
				"patchline" : 				{
					"destination" : [ "obj-3", 2 ],
					"source" : [ "obj-29", 0 ]
				}

			}
, 			{
				"patchline" : 				{
					"destination" : [ "obj-1", 1 ],
					"source" : [ "obj-3", 0 ]
				}

			}
, 			{
				"patchline" : 				{
					"destination" : [ "obj-3", 0 ],
					"source" : [ "obj-4", 0 ]
				}

			}
, 			{
				"patchline" : 				{
					"destination" : [ "obj-3", 3 ],
					"source" : [ "obj-5", 0 ]
				}

			}
 ],
		"originid" : "pat-12",
		"editing_bgcolor" : [ 0.9, 0.9, 0.9, 1.0 ]
	}

}
