{
	"patcher" : 	{
		"fileversion" : 1,
		"appversion" : 		{
			"major" : 8,
			"minor" : 6,
			"revision" : 2,
			"architecture" : "x64",
			"modernui" : 1
		}
,
		"classnamespace" : "box",
		"rect" : [ 303.0, 296.0, 1447.0, 1042.0 ],
		"bglocked" : 0,
		"openinpresentation" : 1,
		"default_fontsize" : 11.0,
		"default_fontface" : 0,
		"default_fontname" : "Consolas",
		"gridonopen" : 1,
		"gridsize" : [ 15.0, 15.0 ],
		"gridsnaponopen" : 1,
		"objectsnaponopen" : 1,
		"statusbarvisible" : 2,
		"toolbarvisible" : 1,
		"lefttoolbarpinned" : 0,
		"toptoolbarpinned" : 0,
		"righttoolbarpinned" : 0,
		"bottomtoolbarpinned" : 0,
		"toolbars_unpinned_last_save" : 0,
		"tallnewobj" : 0,
		"boxanimatetime" : 200,
		"enablehscroll" : 1,
		"enablevscroll" : 1,
		"devicewidth" : 0.0,
		"description" : "",
		"digest" : "",
		"tags" : "",
		"style" : "",
		"subpatcher_template" : "",
		"assistshowspatchername" : 0,
		"boxes" : [ 			{
				"box" : 				{
					"id" : "obj-1",
					"maxclass" : "newobj",
					"numinlets" : 1,
					"numoutlets" : 4,
					"outlettype" : [ "", "", "", "" ],
					"patching_rect" : [ 1081.0, 318.0, 52.0, 19.0 ],
					"restore" : 					{
						"brightness" : [ 1.0 ],
						"contrast" : [ 1.0 ],
						"finalblend" : [ 1.0 ],
						"gamma" : [ 1.0 ],
						"tintamount" : [ 0.0 ],
						"tintcolor[1]" : [ 0.79 ]
					}
,
					"text" : "autopattr",
					"varname" : "u716001251"
				}

			}
, 			{
				"box" : 				{
					"comment" : "",
					"id" : "obj-4",
					"index" : 1,
					"maxclass" : "outlet",
					"numinlets" : 1,
					"numoutlets" : 0,
					"patching_rect" : [ 414.0, 671.0, 30.0, 30.0 ]
				}

			}
, 			{
				"box" : 				{
					"comment" : "",
					"id" : "obj-2",
					"index" : 1,
					"maxclass" : "inlet",
					"numinlets" : 0,
					"numoutlets" : 1,
					"outlettype" : [ "jit_gl_texture" ],
					"patching_rect" : [ 1099.0, 212.0, 30.0, 30.0 ]
				}

			}
, 			{
				"box" : 				{
					"id" : "obj-528",
					"maxclass" : "newobj",
					"numinlets" : 1,
					"numoutlets" : 1,
					"outlettype" : [ "" ],
					"patching_rect" : [ 618.0, 287.0, 125.0, 19.0 ],
					"text" : "prepend v_tintamount"
				}

			}
, 			{
				"box" : 				{
					"bgcolor" : [ 0.8, 0.8, 0.8, 0.0 ],
					"fontface" : 0,
					"fontname" : "Consolas",
					"fontsize" : 10.0,
					"format" : 6,
					"htricolor" : [ 0.32156862745098, 0.341176470588235, 0.368627450980392, 1.0 ],
					"id" : "obj-529",
					"maxclass" : "flonum",
					"maximum" : 2.0,
					"minimum" : 0.0,
					"numdecimalplaces" : 4,
					"numinlets" : 1,
					"numoutlets" : 2,
					"outlettype" : [ "", "bang" ],
					"parameter_enable" : 0,
					"patching_rect" : [ 618.0, 257.0, 59.0, 18.0 ],
					"presentation" : 1,
					"presentation_rect" : [ 148.0, 61.0, 47.0, 18.0 ],
					"textcolor" : [ 1.0, 1.0, 1.0, 1.0 ],
					"tricolor" : [ 0.32156862745098, 0.341176470588235, 0.368627450980392, 1.0 ],
					"triscale" : 0.5,
					"varname" : "tintamount"
				}

			}
, 			{
				"box" : 				{
					"id" : "obj-521",
					"maxclass" : "newobj",
					"numinlets" : 1,
					"numoutlets" : 1,
					"outlettype" : [ "" ],
					"patching_rect" : [ 738.0, 287.0, 113.0, 19.0 ],
					"text" : "prepend v_tintcolor"
				}

			}
, 			{
				"box" : 				{
					"bgcolor" : [ 0.8, 0.8, 0.8, 0.0 ],
					"fontface" : 0,
					"fontname" : "Consolas",
					"fontsize" : 10.0,
					"format" : 6,
					"htricolor" : [ 0.32156862745098, 0.341176470588235, 0.368627450980392, 1.0 ],
					"id" : "obj-522",
					"maxclass" : "flonum",
					"maximum" : 2.0,
					"minimum" : 0.0,
					"numdecimalplaces" : 4,
					"numinlets" : 1,
					"numoutlets" : 2,
					"outlettype" : [ "", "bang" ],
					"parameter_enable" : 0,
					"patching_rect" : [ 738.0, 257.0, 59.0, 18.0 ],
					"presentation" : 1,
					"presentation_rect" : [ 231.0, 61.0, 53.0, 18.0 ],
					"textcolor" : [ 1.0, 1.0, 1.0, 1.0 ],
					"tricolor" : [ 0.32156862745098, 0.341176470588235, 0.368627450980392, 1.0 ],
					"triscale" : 0.5,
					"varname" : "tintcolor[1]"
				}

			}
, 			{
				"box" : 				{
					"bgcolor" : [ 0.8, 0.8, 0.8, 0.0 ],
					"fontface" : 0,
					"fontname" : "Consolas",
					"fontsize" : 10.0,
					"format" : 6,
					"htricolor" : [ 0.32156862745098, 0.341176470588235, 0.368627450980392, 1.0 ],
					"id" : "obj-103",
					"maxclass" : "flonum",
					"maximum" : 2.0,
					"minimum" : -1.0,
					"numdecimalplaces" : 4,
					"numinlets" : 1,
					"numoutlets" : 2,
					"outlettype" : [ "", "bang" ],
					"parameter_enable" : 0,
					"patching_rect" : [ 318.0, 260.59997599999997, 52.0, 18.0 ],
					"presentation" : 1,
					"presentation_rect" : [ 148.0, 21.0, 53.0, 18.0 ],
					"prototypename" : "dsx_float",
					"textcolor" : [ 1.0, 1.0, 1.0, 1.0 ],
					"tricolor" : [ 0.32156862745098, 0.341176470588235, 0.368627450980392, 1.0 ],
					"triscale" : 0.5,
					"varname" : "contrast"
				}

			}
, 			{
				"box" : 				{
					"id" : "obj-102",
					"maxclass" : "newobj",
					"numinlets" : 1,
					"numoutlets" : 1,
					"outlettype" : [ "" ],
					"patching_rect" : [ 318.0, 290.59997599999997, 99.0, 19.0 ],
					"text" : "prepend contrast"
				}

			}
, 			{
				"box" : 				{
					"id" : "obj-92",
					"maxclass" : "newobj",
					"numinlets" : 1,
					"numoutlets" : 1,
					"outlettype" : [ "" ],
					"patching_rect" : [ 420.0, 290.0, 111.0, 19.0 ],
					"text" : "prepend brightness"
				}

			}
, 			{
				"box" : 				{
					"bgcolor" : [ 0.8, 0.8, 0.8, 0.0 ],
					"fontface" : 0,
					"fontname" : "Consolas",
					"fontsize" : 10.0,
					"format" : 6,
					"htricolor" : [ 0.32156862745098, 0.341176470588235, 0.368627450980392, 1.0 ],
					"id" : "obj-97",
					"maxclass" : "flonum",
					"maximum" : 2.0,
					"minimum" : 0.0,
					"numdecimalplaces" : 4,
					"numinlets" : 1,
					"numoutlets" : 2,
					"outlettype" : [ "", "bang" ],
					"parameter_enable" : 0,
					"patching_rect" : [ 420.0, 260.0, 52.0, 18.0 ],
					"presentation" : 1,
					"presentation_rect" : [ 148.0, 1.0, 53.0, 18.0 ],
					"prototypename" : "dsx_float",
					"textcolor" : [ 1.0, 1.0, 1.0, 1.0 ],
					"tricolor" : [ 0.32156862745098, 0.341176470588235, 0.368627450980392, 1.0 ],
					"triscale" : 0.5,
					"varname" : "brightness"
				}

			}
, 			{
				"box" : 				{
					"id" : "obj-150",
					"maxclass" : "newobj",
					"numinlets" : 1,
					"numoutlets" : 1,
					"outlettype" : [ "" ],
					"patching_rect" : [ 528.0, 289.0, 96.0, 19.0 ],
					"text" : "prepend gamma"
				}

			}
, 			{
				"box" : 				{
					"id" : "obj-148",
					"maxclass" : "newobj",
					"numinlets" : 1,
					"numoutlets" : 1,
					"outlettype" : [ "" ],
					"patching_rect" : [ 860.0, 287.0, 133.0, 19.0 ],
					"text" : "prepend finalluminance"
				}

			}
, 			{
				"box" : 				{
					"fontname" : "Consolas",
					"fontsize" : 10.0,
					"id" : "obj-227",
					"maxclass" : "newobj",
					"numinlets" : 1,
					"numoutlets" : 2,
					"outlettype" : [ "jit_gl_texture", "" ],
					"patching_rect" : [ 306.0, 353.0, 228.0, 18.0 ],
					"text" : "jit.gl.pix player @gen x_particle.genjit"
				}

			}
, 			{
				"box" : 				{
					"bgcolor" : [ 0.8, 0.8, 0.8, 0.0 ],
					"fontface" : 0,
					"fontname" : "Consolas",
					"fontsize" : 10.0,
					"format" : 6,
					"htricolor" : [ 0.32156862745098, 0.341176470588235, 0.368627450980392, 1.0 ],
					"id" : "obj-137",
					"maxclass" : "flonum",
					"maximum" : 2.0,
					"minimum" : 0.0,
					"numdecimalplaces" : 4,
					"numinlets" : 1,
					"numoutlets" : 2,
					"outlettype" : [ "", "bang" ],
					"parameter_enable" : 0,
					"patching_rect" : [ 528.0, 259.0, 59.0, 18.0 ],
					"presentation" : 1,
					"presentation_rect" : [ 148.0, 41.0, 53.0, 18.0 ],
					"textcolor" : [ 1.0, 1.0, 1.0, 1.0 ],
					"tricolor" : [ 0.32156862745098, 0.341176470588235, 0.368627450980392, 1.0 ],
					"triscale" : 0.5,
					"varname" : "gamma"
				}

			}
, 			{
				"box" : 				{
					"bgcolor" : [ 0.8, 0.8, 0.8, 0.0 ],
					"fontface" : 0,
					"fontname" : "Consolas",
					"fontsize" : 10.0,
					"format" : 6,
					"htricolor" : [ 0.32156862745098, 0.341176470588235, 0.368627450980392, 1.0 ],
					"id" : "obj-138",
					"maxclass" : "flonum",
					"maximum" : 1.0,
					"minimum" : 0.0,
					"numdecimalplaces" : 4,
					"numinlets" : 1,
					"numoutlets" : 2,
					"outlettype" : [ "", "bang" ],
					"parameter_enable" : 0,
					"patching_rect" : [ 860.0, 258.199951000000056, 59.0, 18.0 ],
					"presentation" : 1,
					"presentation_rect" : [ 148.0, 81.0, 53.0, 18.0 ],
					"textcolor" : [ 1.0, 1.0, 1.0, 1.0 ],
					"tricolor" : [ 0.32156862745098, 0.341176470588235, 0.368627450980392, 1.0 ],
					"triscale" : 0.5,
					"varname" : "finalblend"
				}

			}
, 			{
				"box" : 				{
					"bgcolor" : [ 0.501960784313725, 0.501960784313725, 0.501960784313725, 0.0 ],
					"fontface" : 1,
					"fontname" : "Consolas",
					"fontsize" : 10.0,
					"id" : "obj-530",
					"maxclass" : "comment",
					"numinlets" : 1,
					"numoutlets" : 0,
					"patching_rect" : [ 283.20556600000009, 262.800171000000091, 95.0, 16.0 ],
					"presentation" : 1,
					"presentation_rect" : [ 1.0, 63.0, 82.0, 16.0 ],
					"text" : "Final SAT/HUE",
					"textcolor" : [ 0.129411764705882, 0.129411764705882, 0.129411764705882, 1.0 ]
				}

			}
, 			{
				"box" : 				{
					"bgcolor" : [ 0.501960784313725, 0.501960784313725, 0.501960784313725, 0.0 ],
					"fontface" : 1,
					"fontname" : "Consolas",
					"fontsize" : 10.0,
					"id" : "obj-126",
					"linecount" : 2,
					"maxclass" : "comment",
					"numinlets" : 1,
					"numoutlets" : 0,
					"patching_rect" : [ 324.920043000000078, 200.0, 54.0, 26.0 ],
					"presentation" : 1,
					"presentation_rect" : [ 2.0, 23.0, 102.0, 16.0 ],
					"text" : "Final Contrast",
					"textcolor" : [ 0.129411764705882, 0.129411764705882, 0.129411764705882, 1.0 ]
				}

			}
, 			{
				"box" : 				{
					"bgcolor" : [ 0.501960784313725, 0.501960784313725, 0.501960784313725, 0.0 ],
					"fontface" : 1,
					"fontname" : "Consolas",
					"fontsize" : 10.0,
					"id" : "obj-90",
					"linecount" : 3,
					"maxclass" : "comment",
					"numinlets" : 1,
					"numoutlets" : 0,
					"patching_rect" : [ 309.920043000000078, 185.0, 60.0, 36.0 ],
					"presentation" : 1,
					"presentation_rect" : [ 2.0, 3.0, 101.0, 16.0 ],
					"text" : "Final Brightness",
					"textcolor" : [ 0.129411764705882, 0.129411764705882, 0.129411764705882, 1.0 ]
				}

			}
, 			{
				"box" : 				{
					"bgcolor" : [ 0.501960784313725, 0.501960784313725, 0.501960784313725, 0.0 ],
					"fontface" : 1,
					"fontname" : "Consolas",
					"fontsize" : 10.0,
					"id" : "obj-139",
					"linecount" : 2,
					"maxclass" : "comment",
					"numinlets" : 1,
					"numoutlets" : 0,
					"patching_rect" : [ 325.361633000000438, 222.250122000000147, 48.0, 26.0 ],
					"presentation" : 1,
					"presentation_rect" : [ 2.0, 43.0, 101.0, 16.0 ],
					"text" : "Final Gamma",
					"textcolor" : [ 0.129411764705882, 0.129411764705882, 0.129411764705882, 1.0 ]
				}

			}
, 			{
				"box" : 				{
					"bgcolor" : [ 0.501960784313725, 0.501960784313725, 0.501960784313725, 0.0 ],
					"fontface" : 1,
					"fontname" : "Consolas",
					"fontsize" : 10.0,
					"id" : "obj-77",
					"linecount" : 2,
					"maxclass" : "comment",
					"numinlets" : 1,
					"numoutlets" : 0,
					"patching_rect" : [ 340.361633000000438, 237.250122000000147, 48.0, 26.0 ],
					"presentation" : 1,
					"presentation_rect" : [ 1.0, 83.0, 101.0, 16.0 ],
					"text" : "Final Blend",
					"textcolor" : [ 0.129411764705882, 0.129411764705882, 0.129411764705882, 1.0 ]
				}

			}
, 			{
				"box" : 				{
					"angle" : 0.0,
					"bgcolor" : [ 0.537254901960784, 0.537254901960784, 0.537254901960784, 1.0 ],
					"bordercolor" : [ 0.807843137254902, 0.898039215686275, 0.909803921568627, 0.0 ],
					"id" : "obj-158",
					"maxclass" : "panel",
					"mode" : 0,
					"numinlets" : 1,
					"numoutlets" : 0,
					"patching_rect" : [ 281.0, 225.100097000000233, 128.0, 128.0 ],
					"presentation" : 1,
					"presentation_rect" : [ 1.0, 81.0, 300.0, 19.0 ],
					"proportion" : 0.39,
					"rounded" : 0
				}

			}
, 			{
				"box" : 				{
					"angle" : 0.0,
					"bgcolor" : [ 0.537254901960784, 0.537254901960784, 0.537254901960784, 1.0 ],
					"bordercolor" : [ 0.807843137254902, 0.898039215686275, 0.909803921568627, 0.0 ],
					"id" : "obj-161",
					"maxclass" : "panel",
					"mode" : 0,
					"numinlets" : 1,
					"numoutlets" : 0,
					"patching_rect" : [ 296.0, 240.100097000000233, 128.0, 128.0 ],
					"presentation" : 1,
					"presentation_rect" : [ 1.0, 61.0, 300.0, 19.0 ],
					"proportion" : 0.39,
					"rounded" : 0
				}

			}
, 			{
				"box" : 				{
					"angle" : 0.0,
					"bgcolor" : [ 0.537254901960784, 0.537254901960784, 0.537254901960784, 1.0 ],
					"bordercolor" : [ 0.807843137254902, 0.898039215686275, 0.909803921568627, 0.0 ],
					"id" : "obj-201",
					"maxclass" : "panel",
					"mode" : 0,
					"numinlets" : 1,
					"numoutlets" : 0,
					"patching_rect" : [ 741.305542000000059, 527.700073000000202, 128.0, 128.0 ],
					"presentation" : 1,
					"presentation_rect" : [ 1.0, 41.0, 300.0, 19.0 ],
					"proportion" : 0.39,
					"rounded" : 0
				}

			}
, 			{
				"box" : 				{
					"angle" : 0.0,
					"bgcolor" : [ 0.537254901960784, 0.537254901960784, 0.537254901960784, 1.0 ],
					"bordercolor" : [ 0.807843137254902, 0.898039215686275, 0.909803921568627, 0.0 ],
					"id" : "obj-203",
					"maxclass" : "panel",
					"mode" : 0,
					"numinlets" : 1,
					"numoutlets" : 0,
					"patching_rect" : [ 791.305542000000059, 504.700073000000202, 128.0, 128.0 ],
					"presentation" : 1,
					"presentation_rect" : [ 1.0, 1.0, 300.0, 19.0 ],
					"proportion" : 0.39,
					"rounded" : 0
				}

			}
, 			{
				"box" : 				{
					"angle" : 0.0,
					"bgcolor" : [ 0.537254901960784, 0.537254901960784, 0.537254901960784, 1.0 ],
					"bordercolor" : [ 0.807843137254902, 0.898039215686275, 0.909803921568627, 0.0 ],
					"id" : "obj-257",
					"maxclass" : "panel",
					"mode" : 0,
					"numinlets" : 1,
					"numoutlets" : 0,
					"patching_rect" : [ 777.305542000000059, 507.700073000000202, 128.0, 128.0 ],
					"presentation" : 1,
					"presentation_rect" : [ 1.0, 21.0, 300.0, 19.0 ],
					"proportion" : 0.39,
					"rounded" : 0
				}

			}
 ],
		"lines" : [ 			{
				"patchline" : 				{
					"destination" : [ "obj-227", 0 ],
					"source" : [ "obj-102", 0 ]
				}

			}
, 			{
				"patchline" : 				{
					"destination" : [ "obj-102", 0 ],
					"source" : [ "obj-103", 0 ]
				}

			}
, 			{
				"patchline" : 				{
					"destination" : [ "obj-150", 0 ],
					"source" : [ "obj-137", 0 ]
				}

			}
, 			{
				"patchline" : 				{
					"destination" : [ "obj-148", 0 ],
					"source" : [ "obj-138", 0 ]
				}

			}
, 			{
				"patchline" : 				{
					"destination" : [ "obj-227", 0 ],
					"midpoints" : [ 869.5, 335.5, 315.5, 335.5 ],
					"source" : [ "obj-148", 0 ]
				}

			}
, 			{
				"patchline" : 				{
					"destination" : [ "obj-227", 0 ],
					"midpoints" : [ 537.5, 327.0, 315.5, 327.0 ],
					"source" : [ "obj-150", 0 ]
				}

			}
, 			{
				"patchline" : 				{
					"destination" : [ "obj-227", 0 ],
					"source" : [ "obj-2", 0 ]
				}

			}
, 			{
				"patchline" : 				{
					"destination" : [ "obj-4", 0 ],
					"source" : [ "obj-227", 0 ]
				}

			}
, 			{
				"patchline" : 				{
					"destination" : [ "obj-227", 0 ],
					"midpoints" : [ 747.5, 330.0, 315.5, 330.0 ],
					"source" : [ "obj-521", 0 ]
				}

			}
, 			{
				"patchline" : 				{
					"destination" : [ "obj-521", 0 ],
					"source" : [ "obj-522", 0 ]
				}

			}
, 			{
				"patchline" : 				{
					"destination" : [ "obj-227", 0 ],
					"midpoints" : [ 627.5, 338.0, 315.5, 338.0 ],
					"source" : [ "obj-528", 0 ]
				}

			}
, 			{
				"patchline" : 				{
					"destination" : [ "obj-528", 0 ],
					"source" : [ "obj-529", 0 ]
				}

			}
, 			{
				"patchline" : 				{
					"destination" : [ "obj-227", 0 ],
					"midpoints" : [ 429.5, 327.5, 315.5, 327.5 ],
					"source" : [ "obj-92", 0 ]
				}

			}
, 			{
				"patchline" : 				{
					"destination" : [ "obj-92", 0 ],
					"source" : [ "obj-97", 0 ]
				}

			}
 ]
	}

}
