{
	"patcher" : 	{
		"fileversion" : 1,
		"appversion" : 		{
			"major" : 8,
			"minor" : 6,
			"revision" : 2,
			"architecture" : "x64",
			"modernui" : 1
		}
,
		"classnamespace" : "box",
		"rect" : [ 474.0, 453.0, 716.0, 859.0 ],
		"bglocked" : 0,
		"openinpresentation" : 1,
		"default_fontsize" : 11.0,
		"default_fontface" : 0,
		"default_fontname" : "Consolas",
		"gridonopen" : 1,
		"gridsize" : [ 15.0, 15.0 ],
		"gridsnaponopen" : 1,
		"objectsnaponopen" : 1,
		"statusbarvisible" : 2,
		"toolbarvisible" : 1,
		"lefttoolbarpinned" : 0,
		"toptoolbarpinned" : 0,
		"righttoolbarpinned" : 0,
		"bottomtoolbarpinned" : 0,
		"toolbars_unpinned_last_save" : 0,
		"tallnewobj" : 0,
		"boxanimatetime" : 200,
		"enablehscroll" : 1,
		"enablevscroll" : 1,
		"devicewidth" : 0.0,
		"description" : "",
		"digest" : "",
		"tags" : "",
		"style" : "",
		"subpatcher_template" : "",
		"assistshowspatchername" : 0,
		"boxes" : [ 			{
				"box" : 				{
					"angle" : 0.0,
					"bgcolor" : [ 0.537254901960784, 0.537254901960784, 0.537254901960784, 1.0 ],
					"bordercolor" : [ 0.807843137254902, 0.898039215686275, 0.909803921568627, 0.0 ],
					"id" : "obj-9",
					"maxclass" : "panel",
					"mode" : 0,
					"numinlets" : 1,
					"numoutlets" : 0,
					"patching_rect" : [ 199.0, 837.0, 128.0, 128.0 ],
					"presentation" : 1,
					"presentation_rect" : [ 202.0, 41.0, 200.0, 19.0 ],
					"proportion" : 0.39,
					"rounded" : 0
				}

			}
, 			{
				"box" : 				{
					"angle" : 0.0,
					"bgcolor" : [ 0.537254901960784, 0.537254901960784, 0.537254901960784, 1.0 ],
					"bordercolor" : [ 0.807843137254902, 0.898039215686275, 0.909803921568627, 0.0 ],
					"id" : "obj-8",
					"maxclass" : "panel",
					"mode" : 0,
					"numinlets" : 1,
					"numoutlets" : 0,
					"patching_rect" : [ 184.0, 822.0, 128.0, 128.0 ],
					"presentation" : 1,
					"presentation_rect" : [ 202.0, 61.0, 200.0, 19.0 ],
					"proportion" : 0.39,
					"rounded" : 0
				}

			}
, 			{
				"box" : 				{
					"angle" : 0.0,
					"bgcolor" : [ 0.537254901960784, 0.537254901960784, 0.537254901960784, 1.0 ],
					"bordercolor" : [ 0.807843137254902, 0.898039215686275, 0.909803921568627, 0.0 ],
					"id" : "obj-7",
					"maxclass" : "panel",
					"mode" : 0,
					"numinlets" : 1,
					"numoutlets" : 0,
					"patching_rect" : [ 169.0, 807.0, 128.0, 128.0 ],
					"presentation" : 1,
					"presentation_rect" : [ 202.0, 81.0, 200.0, 19.0 ],
					"proportion" : 0.39,
					"rounded" : 0
				}

			}
, 			{
				"box" : 				{
					"angle" : 0.0,
					"bgcolor" : [ 0.537254901960784, 0.537254901960784, 0.537254901960784, 1.0 ],
					"bordercolor" : [ 0.807843137254902, 0.898039215686275, 0.909803921568627, 0.0 ],
					"id" : "obj-6",
					"maxclass" : "panel",
					"mode" : 0,
					"numinlets" : 1,
					"numoutlets" : 0,
					"patching_rect" : [ 154.0, 792.0, 128.0, 128.0 ],
					"presentation" : 1,
					"presentation_rect" : [ 202.0, 101.0, 200.0, 19.0 ],
					"proportion" : 0.39,
					"rounded" : 0
				}

			}
, 			{
				"box" : 				{
					"id" : "obj-12",
					"maxclass" : "newobj",
					"numinlets" : 1,
					"numoutlets" : 2,
					"outlettype" : [ "", "" ],
					"patching_rect" : [ 1242.0, 250.0, 62.0, 19.0 ],
					"save" : [ "#N", "thispatcher", ";", "#Q", "end", ";" ],
					"text" : "thispatcher"
				}

			}
, 			{
				"box" : 				{
					"id" : "obj-5",
					"maxclass" : "newobj",
					"numinlets" : 1,
					"numoutlets" : 4,
					"outlettype" : [ "", "", "", "" ],
					"patching_rect" : [ 1338.0, 30.0, 52.0, 19.0 ],
					"restore" : 					{
						"displaceamount1" : [ 0.5 ],
						"displaceamount2" : [ 0.5 ],
						"displacemix" : [ 0.0 ],
						"displaceself" : [ 0.5 ],
						"zshift" : [ 0.5 ]
					}
,
					"text" : "autopattr",
					"varname" : "u238004809"
				}

			}
, 			{
				"box" : 				{
					"comment" : "",
					"id" : "obj-4",
					"index" : 3,
					"maxclass" : "inlet",
					"numinlets" : 0,
					"numoutlets" : 1,
					"outlettype" : [ "" ],
					"patching_rect" : [ 916.0, 68.0, 30.0, 30.0 ]
				}

			}
, 			{
				"box" : 				{
					"comment" : "",
					"id" : "obj-3",
					"index" : 2,
					"maxclass" : "inlet",
					"numinlets" : 0,
					"numoutlets" : 1,
					"outlettype" : [ "" ],
					"patching_rect" : [ 744.5, 68.0, 30.0, 30.0 ]
				}

			}
, 			{
				"box" : 				{
					"angle" : 0.0,
					"bgcolor" : [ 0.537254901960784, 0.537254901960784, 0.537254901960784, 1.0 ],
					"bordercolor" : [ 0.807843137254902, 0.898039215686275, 0.909803921568627, 0.0 ],
					"id" : "obj-442",
					"maxclass" : "panel",
					"mode" : 0,
					"numinlets" : 1,
					"numoutlets" : 0,
					"patching_rect" : [ 139.0, 777.0, 128.0, 128.0 ],
					"presentation" : 1,
					"presentation_rect" : [ 202.0, 121.0, 200.0, 19.0 ],
					"proportion" : 0.39,
					"rounded" : 0
				}

			}
, 			{
				"box" : 				{
					"bgcolor" : [ 0.423529411764706, 0.423529411764706, 0.423529411764706, 0.0 ],
					"bubbleusescolors" : 1,
					"fontface" : 1,
					"fontname" : "Consolas",
					"fontsize" : 11.0,
					"id" : "obj-515",
					"maxclass" : "comment",
					"numinlets" : 1,
					"numoutlets" : 0,
					"patching_rect" : [ 347.90002400000003, 402.100097999999889, 105.0, 17.0 ],
					"presentation" : 1,
					"presentation_rect" : [ 1.0, 3.0, 159.0, 17.0 ],
					"text" : "STEREOSCOPIC",
					"textcolor" : [ 0.12156862745098, 0.129411764705882, 0.141176470588235, 1.0 ]
				}

			}
, 			{
				"box" : 				{
					"angle" : 0.0,
					"bgcolor" : [ 0.356862745098039, 0.356862745098039, 0.356862745098039, 1.0 ],
					"bordercolor" : [ 0.807843137254902, 0.898039215686275, 0.909803921568627, 0.0 ],
					"id" : "obj-516",
					"maxclass" : "panel",
					"mode" : 0,
					"numinlets" : 1,
					"numoutlets" : 0,
					"patching_rect" : [ 92.0, 265.0, 128.0, 128.0 ],
					"presentation" : 1,
					"presentation_rect" : [ 1.0, 1.0, 401.0, 19.0 ],
					"proportion" : 0.39,
					"rounded" : 0
				}

			}
, 			{
				"box" : 				{
					"comment" : "",
					"id" : "obj-2",
					"index" : 1,
					"maxclass" : "outlet",
					"numinlets" : 1,
					"numoutlets" : 0,
					"patching_rect" : [ 585.0, 904.0, 30.0, 30.0 ]
				}

			}
, 			{
				"box" : 				{
					"comment" : "",
					"id" : "obj-1",
					"index" : 1,
					"maxclass" : "inlet",
					"numinlets" : 0,
					"numoutlets" : 1,
					"outlettype" : [ "jit_gl_texture" ],
					"patching_rect" : [ 584.0, 68.0, 30.0, 30.0 ]
				}

			}
, 			{
				"box" : 				{
					"fontname" : "Consolas",
					"fontsize" : 10.0,
					"id" : "obj-487",
					"maxclass" : "newobj",
					"numinlets" : 6,
					"numoutlets" : 1,
					"outlettype" : [ "" ],
					"patching_rect" : [ 757.0, 316.0, 102.0, 18.0 ],
					"text" : "scale 0. 1. -0.03 0.03"
				}

			}
, 			{
				"box" : 				{
					"fontname" : "Consolas",
					"fontsize" : 10.0,
					"format" : 6,
					"htricolor" : [ 0.278099328279495, 0.278099328279495, 0.278099328279495, 1.0 ],
					"id" : "obj-266",
					"maxclass" : "flonum",
					"maximum" : 1.0,
					"minimum" : 0.0,
					"numdecimalplaces" : 4,
					"numinlets" : 1,
					"numoutlets" : 2,
					"outlettype" : [ "", "bang" ],
					"parameter_enable" : 0,
					"patching_rect" : [ 860.0, 463.0, 51.0, 18.0 ],
					"presentation" : 1,
					"presentation_rect" : [ 146.0, 41.0, 47.0, 18.0 ],
					"style" : "dsx.flonum",
					"textcolor" : [ 1.0, 1.0, 1.0, 1.0 ],
					"tricolor" : [ 0.278099328279495, 0.278099328279495, 0.278099328279495, 1.0 ],
					"triscale" : 0.5,
					"varname" : "displaceself"
				}

			}
, 			{
				"box" : 				{
					"id" : "obj-452",
					"maxclass" : "newobj",
					"numinlets" : 1,
					"numoutlets" : 1,
					"outlettype" : [ "" ],
					"patching_rect" : [ 356.0, 757.0, 92.0, 19.0 ],
					"text" : "prepend enable"
				}

			}
, 			{
				"box" : 				{
					"id" : "obj-447",
					"maxclass" : "newobj",
					"numinlets" : 2,
					"numoutlets" : 1,
					"outlettype" : [ "int" ],
					"patching_rect" : [ 356.0, 729.0, 29.5, 19.0 ],
					"text" : "!- 1"
				}

			}
, 			{
				"box" : 				{
					"id" : "obj-443",
					"maxclass" : "newobj",
					"numinlets" : 2,
					"numoutlets" : 1,
					"outlettype" : [ "int" ],
					"patching_rect" : [ 356.0, 701.0, 33.0, 19.0 ],
					"text" : "== 0"
				}

			}
, 			{
				"box" : 				{
					"id" : "obj-441",
					"maxclass" : "newobj",
					"numinlets" : 2,
					"numoutlets" : 1,
					"outlettype" : [ "int" ],
					"patching_rect" : [ 218.0, 671.0, 29.5, 19.0 ],
					"text" : "- 1"
				}

			}
, 			{
				"box" : 				{
					"id" : "obj-359",
					"maxclass" : "newobj",
					"numinlets" : 1,
					"numoutlets" : 3,
					"outlettype" : [ "", "", "" ],
					"patching_rect" : [ 129.0, 607.5, 197.0, 19.0 ],
					"restore" : [ 0 ],
					"saved_object_attributes" : 					{
						"parameter_enable" : 0,
						"parameter_mappable" : 0
					}
,
					"text" : "pattr stereomode @default_interp 0",
					"varname" : "stereomode"
				}

			}
, 			{
				"box" : 				{
					"bgcolor" : [ 0.862745098039216, 0.870588235294118, 0.87843137254902, 0.0 ],
					"contrastactivetab" : 0,
					"fontname" : "Consolas",
					"fontsize" : 10.0,
					"htabcolor" : [ 0.278099328279495, 0.278099328279495, 0.278099328279495, 1.0 ],
					"id" : "obj-288",
					"margin" : 0,
					"maxclass" : "tab",
					"mode" : 1,
					"multiline" : 0,
					"numinlets" : 1,
					"numoutlets" : 3,
					"outlettype" : [ "int", "", "" ],
					"parameter_enable" : 0,
					"patching_rect" : [ 218.0, 637.0, 182.0, 24.0 ],
					"presentation" : 1,
					"presentation_rect" : [ 68.0, 21.0, 334.0, 19.0 ],
					"rounded" : 0.0,
					"spacing_x" : 1.0,
					"spacing_y" : 1.0,
					"style" : "dsx.tab3",
					"tabcolor" : [ 0.356862745098039, 0.356862745098039, 0.356862745098039, 1.0 ],
					"tabs" : [ "Off", "R/C", "G/M", "INTERLACE", "SBS", "SBS R/C", "SBS G/M" ],
					"textcolor" : [ 0.901960784313726, 0.901960784313726, 0.901960784313726, 1.0 ],
					"varname" : "tab"
				}

			}
, 			{
				"box" : 				{
					"id" : "obj-438",
					"maxclass" : "newobj",
					"numinlets" : 0,
					"numoutlets" : 1,
					"outlettype" : [ "" ],
					"patching_rect" : [ 514.0, 757.0, 37.0, 19.0 ],
					"text" : "r size"
				}

			}
, 			{
				"box" : 				{
					"id" : "obj-332",
					"maxclass" : "newobj",
					"numinlets" : 1,
					"numoutlets" : 2,
					"outlettype" : [ "jit_gl_texture", "" ],
					"patcher" : 					{
						"fileversion" : 1,
						"appversion" : 						{
							"major" : 8,
							"minor" : 6,
							"revision" : 2,
							"architecture" : "x64",
							"modernui" : 1
						}
,
						"classnamespace" : "jit.gen",
						"rect" : [ 421.0, 623.0, 218.0, 182.0 ],
						"bglocked" : 0,
						"openinpresentation" : 0,
						"default_fontsize" : 12.0,
						"default_fontface" : 0,
						"default_fontname" : "Arial",
						"gridonopen" : 1,
						"gridsize" : [ 15.0, 15.0 ],
						"gridsnaponopen" : 1,
						"objectsnaponopen" : 1,
						"statusbarvisible" : 2,
						"toolbarvisible" : 1,
						"lefttoolbarpinned" : 0,
						"toptoolbarpinned" : 0,
						"righttoolbarpinned" : 0,
						"bottomtoolbarpinned" : 0,
						"toolbars_unpinned_last_save" : 0,
						"tallnewobj" : 0,
						"boxanimatetime" : 200,
						"enablehscroll" : 1,
						"enablevscroll" : 1,
						"devicewidth" : 0.0,
						"description" : "",
						"digest" : "",
						"tags" : "",
						"style" : "",
						"subpatcher_template" : "",
						"assistshowspatchername" : 0,
						"boxes" : [ 							{
								"box" : 								{
									"id" : "obj-1",
									"maxclass" : "newobj",
									"numinlets" : 0,
									"numoutlets" : 1,
									"outlettype" : [ "" ],
									"patching_rect" : [ 50.0, 14.0, 28.0, 22.0 ],
									"text" : "in 1"
								}

							}
, 							{
								"box" : 								{
									"id" : "obj-4",
									"maxclass" : "newobj",
									"numinlets" : 1,
									"numoutlets" : 0,
									"patching_rect" : [ 50.0, 93.0, 35.0, 22.0 ],
									"text" : "out 1"
								}

							}
 ],
						"lines" : [ 							{
								"patchline" : 								{
									"destination" : [ "obj-4", 0 ],
									"source" : [ "obj-1", 0 ]
								}

							}
 ]
					}
,
					"patching_rect" : [ 667.0, 753.0, 151.0, 19.0 ],
					"text" : "jit.gl.pix player @adapt 0"
				}

			}
, 			{
				"box" : 				{
					"id" : "obj-335",
					"maxclass" : "newobj",
					"numinlets" : 1,
					"numoutlets" : 2,
					"outlettype" : [ "jit_gl_texture", "" ],
					"patcher" : 					{
						"fileversion" : 1,
						"appversion" : 						{
							"major" : 8,
							"minor" : 6,
							"revision" : 2,
							"architecture" : "x64",
							"modernui" : 1
						}
,
						"classnamespace" : "jit.gen",
						"rect" : [ 421.0, 623.0, 218.0, 182.0 ],
						"bglocked" : 0,
						"openinpresentation" : 0,
						"default_fontsize" : 12.0,
						"default_fontface" : 0,
						"default_fontname" : "Arial",
						"gridonopen" : 1,
						"gridsize" : [ 15.0, 15.0 ],
						"gridsnaponopen" : 1,
						"objectsnaponopen" : 1,
						"statusbarvisible" : 2,
						"toolbarvisible" : 1,
						"lefttoolbarpinned" : 0,
						"toptoolbarpinned" : 0,
						"righttoolbarpinned" : 0,
						"bottomtoolbarpinned" : 0,
						"toolbars_unpinned_last_save" : 0,
						"tallnewobj" : 0,
						"boxanimatetime" : 200,
						"enablehscroll" : 1,
						"enablevscroll" : 1,
						"devicewidth" : 0.0,
						"description" : "",
						"digest" : "",
						"tags" : "",
						"style" : "",
						"subpatcher_template" : "",
						"assistshowspatchername" : 0,
						"boxes" : [ 							{
								"box" : 								{
									"id" : "obj-1",
									"maxclass" : "newobj",
									"numinlets" : 0,
									"numoutlets" : 1,
									"outlettype" : [ "" ],
									"patching_rect" : [ 50.0, 14.0, 28.0, 22.0 ],
									"text" : "in 1"
								}

							}
, 							{
								"box" : 								{
									"id" : "obj-4",
									"maxclass" : "newobj",
									"numinlets" : 1,
									"numoutlets" : 0,
									"patching_rect" : [ 50.0, 93.0, 35.0, 22.0 ],
									"text" : "out 1"
								}

							}
 ],
						"lines" : [ 							{
								"patchline" : 								{
									"destination" : [ "obj-4", 0 ],
									"source" : [ "obj-1", 0 ]
								}

							}
 ]
					}
,
					"patching_rect" : [ 585.0, 799.0, 151.0, 19.0 ],
					"text" : "jit.gl.pix player @adapt 0"
				}

			}
, 			{
				"box" : 				{
					"id" : "obj-338",
					"maxclass" : "newobj",
					"numinlets" : 1,
					"numoutlets" : 1,
					"outlettype" : [ "" ],
					"patching_rect" : [ 218.0, 699.0, 123.0, 19.0 ],
					"text" : "prepend stereomode"
				}

			}
, 			{
				"box" : 				{
					"id" : "obj-355",
					"maxclass" : "newobj",
					"numinlets" : 3,
					"numoutlets" : 2,
					"outlettype" : [ "jit_gl_texture", "" ],
					"patcher" : 					{
						"fileversion" : 1,
						"appversion" : 						{
							"major" : 8,
							"minor" : 6,
							"revision" : 2,
							"architecture" : "x64",
							"modernui" : 1
						}
,
						"classnamespace" : "jit.gen",
						"rect" : [ 1369.0, 118.0, 1147.0, 1239.0 ],
						"bglocked" : 0,
						"openinpresentation" : 0,
						"default_fontsize" : 12.0,
						"default_fontface" : 0,
						"default_fontname" : "Arial",
						"gridonopen" : 1,
						"gridsize" : [ 15.0, 15.0 ],
						"gridsnaponopen" : 1,
						"objectsnaponopen" : 1,
						"statusbarvisible" : 2,
						"toolbarvisible" : 1,
						"lefttoolbarpinned" : 0,
						"toptoolbarpinned" : 0,
						"righttoolbarpinned" : 0,
						"bottomtoolbarpinned" : 0,
						"toolbars_unpinned_last_save" : 2,
						"tallnewobj" : 0,
						"boxanimatetime" : 200,
						"enablehscroll" : 1,
						"enablevscroll" : 1,
						"devicewidth" : 0.0,
						"description" : "",
						"digest" : "",
						"tags" : "",
						"style" : "",
						"subpatcher_template" : "",
						"assistshowspatchername" : 0,
						"boxes" : [ 							{
								"box" : 								{
									"id" : "obj-6",
									"maxclass" : "newobj",
									"numinlets" : 0,
									"numoutlets" : 1,
									"outlettype" : [ "" ],
									"patching_rect" : [ 821.0, 228.0, 60.0, 22.0 ],
									"text" : "Param co"
								}

							}
, 							{
								"box" : 								{
									"id" : "obj-5",
									"maxclass" : "newobj",
									"numinlets" : 0,
									"numoutlets" : 1,
									"outlettype" : [ "" ],
									"patching_rect" : [ 850.0, 157.0, 58.0, 22.0 ],
									"text" : "Param br"
								}

							}
, 							{
								"box" : 								{
									"id" : "obj-3",
									"maxclass" : "newobj",
									"numinlets" : 0,
									"numoutlets" : 1,
									"outlettype" : [ "" ],
									"patching_rect" : [ 678.0, 14.0, 28.0, 22.0 ],
									"text" : "in 3"
								}

							}
, 							{
								"box" : 								{
									"id" : "obj-2",
									"maxclass" : "newobj",
									"numinlets" : 0,
									"numoutlets" : 1,
									"outlettype" : [ "" ],
									"patching_rect" : [ 364.0, 14.0, 28.0, 22.0 ],
									"text" : "in 2"
								}

							}
, 							{
								"box" : 								{
									"id" : "obj-10",
									"maxclass" : "newobj",
									"numinlets" : 0,
									"numoutlets" : 1,
									"outlettype" : [ "" ],
									"patching_rect" : [ 789.0, 19.0, 109.0, 22.0 ],
									"text" : "param stereomode"
								}

							}
, 							{
								"box" : 								{
									"code" : "// https://wiki.delphigl.com/index.php/shader_Stereoscopy#Code\r\noriginal = sample(in3,norm);\r\n\r\n// koordinaten single Screen Stereo\r\n\r\nsinglelefteye = norm;\r\nsinglerighteye = norm;\t\r\n\r\n/* koordinaten side by side */\r\n\r\nmaskleft = step(0.5,norm.x);\r\nmaskright = 1-step(0.5,norm.x);\r\n\r\nduallefteye = vec(norm.x*2-1, norm.y);\r\ndualrighteye = vec(norm.x*2+1,norm.y);\r\n\r\n\r\nsl = sample(in1,singlelefteye,boundmode=\"wrap\");\r\nsr = sample(in2,singlerighteye,boundmode=\"wrap\");\r\n\r\ndl = sample(in1,duallefteye,boundmode=\"wrap\");\r\ndr = sample(in2,dualrighteye,boundmode=\"wrap\");\r\n\r\nif(stereomode == -1) {\r\n\tout1 = original;\r\n\t}\r\n\r\n\r\nelse if(stereomode == 0) {\r\n\tout1 = vec(sr,sl,sl,1); // red/cyan\r\n\t}\r\n\r\n\r\nelse if (stereomode == 1) {\r\n\tout1 = vec(sr,sl,sr,1);\r\n\t}\r\n\r\n\r\nelse if(stereomode == 2) {\r\n\tm = mod(cell.y,1.999); // why not 2?\r\n\tif (m <= 1) {\r\n\t\tout1 = sr; // show texture on even lines\r\n\t}\t\r\n\telse {\r\n \t\tout1 = sl; // show black on odd lines\r\n\t}\r\n\t}\r\n\t\r\nelse if(stereomode == 3) {\r\n\t//out1 = vec(dl,dl,dl)* maskright + vec(dr,dr,dr) * maskleft;\r\n\tout1 = dl * maskright + dr * maskleft;\r\n\t}\r\n\t\r\n\r\nelse if(stereomode == 4) {\r\n\tout1 = vec(dl,0,0)* maskright+vec(0,dr,dr)* maskleft;\r\n\t//out1 = dl.gb * maskright + dr.r * maskleft;\r\n\t}\r\n\r\n\r\nelse if(stereomode == 5) {\r\n\tout1 = vec(0,dl,0)* maskright+vec(dr,0,dr)* maskleft;\r\n\t}\r\n\t\r\nelse if(stereomode == 6) {\r\n\tx1 = vec(sr,0,0);\r\n\tx2 = vec(0,sl,sl);\r\n\tm1 = mix(0.5*sr+x1,0.5*sl+x2,0.5);\r\n\tm1 -= br;\r\n\tm1 *= co;\r\n\tout1 = m1;\r\n\t}\r\n\t",
									"fontface" : 0,
									"fontname" : "<Monospaced>",
									"fontsize" : 11.0,
									"id" : "obj-8",
									"maxclass" : "codebox",
									"numinlets" : 3,
									"numoutlets" : 1,
									"outlettype" : [ "" ],
									"patching_rect" : [ 50.0, 58.0, 647.0, 832.0 ]
								}

							}
, 							{
								"box" : 								{
									"id" : "obj-1",
									"maxclass" : "newobj",
									"numinlets" : 0,
									"numoutlets" : 1,
									"outlettype" : [ "" ],
									"patching_rect" : [ 50.0, 14.0, 28.0, 22.0 ],
									"text" : "in 1"
								}

							}
, 							{
								"box" : 								{
									"id" : "obj-4",
									"maxclass" : "newobj",
									"numinlets" : 1,
									"numoutlets" : 0,
									"patching_rect" : [ 50.0, 969.0, 35.0, 22.0 ],
									"text" : "out 1"
								}

							}
 ],
						"lines" : [ 							{
								"patchline" : 								{
									"destination" : [ "obj-8", 0 ],
									"source" : [ "obj-1", 0 ]
								}

							}
, 							{
								"patchline" : 								{
									"destination" : [ "obj-8", 1 ],
									"source" : [ "obj-2", 0 ]
								}

							}
, 							{
								"patchline" : 								{
									"destination" : [ "obj-8", 2 ],
									"source" : [ "obj-3", 0 ]
								}

							}
, 							{
								"patchline" : 								{
									"destination" : [ "obj-4", 0 ],
									"source" : [ "obj-8", 0 ]
								}

							}
 ]
					}
,
					"patching_rect" : [ 585.0, 851.0, 183.0, 19.0 ],
					"text" : "jit.gl.pix player @adapt 0"
				}

			}
, 			{
				"box" : 				{
					"fontname" : "Consolas",
					"fontsize" : 10.0,
					"id" : "obj-228",
					"maxclass" : "newobj",
					"numinlets" : 3,
					"numoutlets" : 3,
					"outlettype" : [ "jit_gl_texture", "jit_gl_texture", "" ],
					"patcher" : 					{
						"fileversion" : 1,
						"appversion" : 						{
							"major" : 8,
							"minor" : 6,
							"revision" : 2,
							"architecture" : "x64",
							"modernui" : 1
						}
,
						"classnamespace" : "jit.gen",
						"rect" : [ 992.0, 731.0, 607.0, 662.0 ],
						"bglocked" : 0,
						"openinpresentation" : 0,
						"default_fontsize" : 12.0,
						"default_fontface" : 0,
						"default_fontname" : "Arial",
						"gridonopen" : 1,
						"gridsize" : [ 15.0, 15.0 ],
						"gridsnaponopen" : 1,
						"objectsnaponopen" : 1,
						"statusbarvisible" : 2,
						"toolbarvisible" : 1,
						"lefttoolbarpinned" : 0,
						"toptoolbarpinned" : 0,
						"righttoolbarpinned" : 0,
						"bottomtoolbarpinned" : 0,
						"toolbars_unpinned_last_save" : 0,
						"tallnewobj" : 0,
						"boxanimatetime" : 200,
						"enablehscroll" : 1,
						"enablevscroll" : 1,
						"devicewidth" : 0.0,
						"description" : "",
						"digest" : "",
						"tags" : "",
						"style" : "",
						"subpatcher_template" : "",
						"assistshowspatchername" : 0,
						"boxes" : [ 							{
								"box" : 								{
									"id" : "obj-3",
									"maxclass" : "newobj",
									"numinlets" : 0,
									"numoutlets" : 1,
									"outlettype" : [ "" ],
									"patching_rect" : [ 554.0, 14.0, 28.0, 22.0 ],
									"text" : "in 3"
								}

							}
, 							{
								"box" : 								{
									"id" : "obj-6",
									"maxclass" : "newobj",
									"numinlets" : 1,
									"numoutlets" : 0,
									"patching_rect" : [ 554.0, 659.0, 35.0, 22.0 ],
									"text" : "out 2"
								}

							}
, 							{
								"box" : 								{
									"id" : "obj-2",
									"maxclass" : "newobj",
									"numinlets" : 0,
									"numoutlets" : 1,
									"outlettype" : [ "" ],
									"patching_rect" : [ 302.0, 14.0, 28.0, 22.0 ],
									"text" : "in 2"
								}

							}
, 							{
								"box" : 								{
									"code" : "// -----------------------------------------------------------\r\n// Pixel Displacement Input2\r\n\r\nf_displace(input1,input2,input3,amount1,amount2,sourcemix) {\r\n\tlumcoeff  = vec(0.299,0.587,0.114);\r\n\tluminance1 = dot(input2,lumcoeff);\r\n\tluminance2 = dot(input3,lumcoeff);\r\n\t\r\n\tdisplace_x1 = amount1 * luminance1;\r\n\tdisplace_x2 = amount2 * luminance2;\r\n\tdisplace_x = norm.x - mix(displace_x1,displace_x2,0.5);\r\n\tdisplace_v = vec(displace_x,norm.y);\r\n\r\n\tdisplace = sample(input1,displace_v);\r\n\t\r\n\treturn displace;\r\n\t}\r\n\r\n\r\nParam v_displace1;\r\nParam v_displace2;\r\nParam v_displacemix;\r\n\r\nout1 = f_displace(in1,in2,in3,v_displace1,v_displace2,v_displacemix);\r\nout2 = f_displace(in1,in2,in3,-v_displace1,-v_displace2,v_displacemix);",
									"fontface" : 0,
									"fontname" : "<Monospaced>",
									"fontsize" : 11.0,
									"id" : "obj-5",
									"maxclass" : "codebox",
									"numinlets" : 3,
									"numoutlets" : 2,
									"outlettype" : [ "", "" ],
									"patching_rect" : [ 50.0, 57.0, 523.0, 557.0 ]
								}

							}
, 							{
								"box" : 								{
									"id" : "obj-1",
									"maxclass" : "newobj",
									"numinlets" : 0,
									"numoutlets" : 1,
									"outlettype" : [ "" ],
									"patching_rect" : [ 50.0, 14.0, 28.0, 22.0 ],
									"text" : "in 1"
								}

							}
, 							{
								"box" : 								{
									"id" : "obj-4",
									"maxclass" : "newobj",
									"numinlets" : 1,
									"numoutlets" : 0,
									"patching_rect" : [ 50.0, 647.0, 35.0, 22.0 ],
									"text" : "out 1"
								}

							}
 ],
						"lines" : [ 							{
								"patchline" : 								{
									"destination" : [ "obj-5", 0 ],
									"source" : [ "obj-1", 0 ]
								}

							}
, 							{
								"patchline" : 								{
									"destination" : [ "obj-5", 1 ],
									"source" : [ "obj-2", 0 ]
								}

							}
, 							{
								"patchline" : 								{
									"destination" : [ "obj-5", 2 ],
									"source" : [ "obj-3", 0 ]
								}

							}
, 							{
								"patchline" : 								{
									"destination" : [ "obj-4", 0 ],
									"source" : [ "obj-5", 0 ]
								}

							}
, 							{
								"patchline" : 								{
									"destination" : [ "obj-6", 0 ],
									"source" : [ "obj-5", 1 ]
								}

							}
 ]
					}
,
					"patching_rect" : [ 584.0, 406.0, 351.0, 18.0 ],
					"text" : "jit.gl.pix player @adapt 1"
				}

			}
, 			{
				"box" : 				{
					"fontname" : "Consolas",
					"fontsize" : 10.0,
					"id" : "obj-230",
					"maxclass" : "newobj",
					"numinlets" : 2,
					"numoutlets" : 3,
					"outlettype" : [ "jit_gl_texture", "jit_gl_texture", "" ],
					"patcher" : 					{
						"fileversion" : 1,
						"appversion" : 						{
							"major" : 8,
							"minor" : 6,
							"revision" : 2,
							"architecture" : "x64",
							"modernui" : 1
						}
,
						"classnamespace" : "jit.gen",
						"rect" : [ 547.0, 305.0, 600.0, 450.0 ],
						"bglocked" : 0,
						"openinpresentation" : 0,
						"default_fontsize" : 12.0,
						"default_fontface" : 0,
						"default_fontname" : "Arial",
						"gridonopen" : 1,
						"gridsize" : [ 15.0, 15.0 ],
						"gridsnaponopen" : 1,
						"objectsnaponopen" : 1,
						"statusbarvisible" : 2,
						"toolbarvisible" : 1,
						"lefttoolbarpinned" : 0,
						"toptoolbarpinned" : 0,
						"righttoolbarpinned" : 0,
						"bottomtoolbarpinned" : 0,
						"toolbars_unpinned_last_save" : 0,
						"tallnewobj" : 0,
						"boxanimatetime" : 200,
						"enablehscroll" : 1,
						"enablevscroll" : 1,
						"devicewidth" : 0.0,
						"description" : "",
						"digest" : "",
						"tags" : "",
						"style" : "",
						"subpatcher_template" : "",
						"assistshowspatchername" : 0,
						"boxes" : [ 							{
								"box" : 								{
									"id" : "obj-3",
									"maxclass" : "newobj",
									"numinlets" : 0,
									"numoutlets" : 1,
									"outlettype" : [ "" ],
									"patching_rect" : [ 502.0, 14.0, 28.0, 22.0 ],
									"text" : "in 2"
								}

							}
, 							{
								"box" : 								{
									"id" : "obj-2",
									"maxclass" : "newobj",
									"numinlets" : 1,
									"numoutlets" : 0,
									"patching_rect" : [ 502.0, 405.0, 35.0, 22.0 ],
									"text" : "out 2"
								}

							}
, 							{
								"box" : 								{
									"code" : "// -----------------------------------------------------------\r\n// Perspective Shift + Zshift\r\n\r\nf_geometry(image,amount,shift) {\r\n\tlumcoeff = vec(0.299,0.587,0.114);\r\n\tgradient = vec(1,1-norm.y);\r\n\tlumagradient = dot(gradient,lumcoeff);\r\n\tgeometry = vec(norm.x + shift + lumagradient * amount, norm.y);\r\n\t\r\n\treturn sample(image,geometry);\r\n\t}\r\n\t\r\nParam v_perspective;\r\nParam v_zshift;\r\n\t\r\nout1 = f_geometry(in1,v_perspective,v_zshift);\r\nout2 = f_geometry(in2,-v_perspective,-v_zshift);\r\n",
									"fontface" : 0,
									"fontname" : "<Monospaced>",
									"fontsize" : 11.0,
									"id" : "obj-5",
									"maxclass" : "codebox",
									"numinlets" : 2,
									"numoutlets" : 2,
									"outlettype" : [ "", "" ],
									"patching_rect" : [ 50.0, 49.0, 471.0, 339.0 ]
								}

							}
, 							{
								"box" : 								{
									"id" : "obj-1",
									"maxclass" : "newobj",
									"numinlets" : 0,
									"numoutlets" : 1,
									"outlettype" : [ "" ],
									"patching_rect" : [ 50.0, 14.0, 28.0, 22.0 ],
									"text" : "in 1"
								}

							}
, 							{
								"box" : 								{
									"id" : "obj-4",
									"maxclass" : "newobj",
									"numinlets" : 1,
									"numoutlets" : 0,
									"patching_rect" : [ 50.0, 415.0, 35.0, 22.0 ],
									"text" : "out 1"
								}

							}
 ],
						"lines" : [ 							{
								"patchline" : 								{
									"destination" : [ "obj-5", 0 ],
									"source" : [ "obj-1", 0 ]
								}

							}
, 							{
								"patchline" : 								{
									"destination" : [ "obj-5", 1 ],
									"source" : [ "obj-3", 0 ]
								}

							}
, 							{
								"patchline" : 								{
									"destination" : [ "obj-2", 0 ],
									"source" : [ "obj-5", 1 ]
								}

							}
, 							{
								"patchline" : 								{
									"destination" : [ "obj-4", 0 ],
									"source" : [ "obj-5", 0 ]
								}

							}
 ]
					}
,
					"patching_rect" : [ 584.0, 711.0, 185.0, 18.0 ],
					"text" : "jit.gl.pix player @adapt 1"
				}

			}
, 			{
				"box" : 				{
					"fontname" : "Consolas",
					"fontsize" : 10.0,
					"id" : "obj-232",
					"maxclass" : "newobj",
					"numinlets" : 2,
					"numoutlets" : 3,
					"outlettype" : [ "jit_gl_texture", "jit_gl_texture", "" ],
					"patcher" : 					{
						"fileversion" : 1,
						"appversion" : 						{
							"major" : 8,
							"minor" : 6,
							"revision" : 2,
							"architecture" : "x64",
							"modernui" : 1
						}
,
						"classnamespace" : "jit.gen",
						"rect" : [ 835.0, 175.0, 565.0, 649.0 ],
						"bglocked" : 0,
						"openinpresentation" : 0,
						"default_fontsize" : 12.0,
						"default_fontface" : 0,
						"default_fontname" : "Arial",
						"gridonopen" : 1,
						"gridsize" : [ 15.0, 15.0 ],
						"gridsnaponopen" : 1,
						"objectsnaponopen" : 1,
						"statusbarvisible" : 2,
						"toolbarvisible" : 1,
						"lefttoolbarpinned" : 0,
						"toptoolbarpinned" : 0,
						"righttoolbarpinned" : 0,
						"bottomtoolbarpinned" : 0,
						"toolbars_unpinned_last_save" : 0,
						"tallnewobj" : 0,
						"boxanimatetime" : 200,
						"enablehscroll" : 1,
						"enablevscroll" : 1,
						"devicewidth" : 0.0,
						"description" : "",
						"digest" : "",
						"tags" : "",
						"style" : "",
						"subpatcher_template" : "",
						"assistshowspatchername" : 0,
						"boxes" : [ 							{
								"box" : 								{
									"fontname" : "Arial",
									"fontsize" : 12.0,
									"id" : "obj-3",
									"maxclass" : "newobj",
									"numinlets" : 0,
									"numoutlets" : 1,
									"outlettype" : [ "" ],
									"patching_rect" : [ 501.5, 23.0, 28.0, 22.0 ],
									"text" : "in 2"
								}

							}
, 							{
								"box" : 								{
									"fontname" : "Arial",
									"fontsize" : 12.0,
									"id" : "obj-2",
									"maxclass" : "newobj",
									"numinlets" : 1,
									"numoutlets" : 0,
									"patching_rect" : [ 518.5, 536.0, 35.0, 22.0 ],
									"text" : "out 2"
								}

							}
, 							{
								"box" : 								{
									"code" : "// -----------------------------------------------------------\r\n// Pixel Self Displacement\r\n\r\nf_displaceself(image,amountx,amounty) {\r\n\tlumcoeff = vec(0.299,0.587,0.114);\r\n\tluminance = dot(image,lumcoeff);\r\n\tdisplaceself_x = (norm.x + amountx * luminance) ;\r\n\tdisplaceself_y = norm.y  + amounty * luminance ;\r\n\tdisplaceself = vec(displaceself_x,displaceself_y);\r\n\tresult1 = sample(image,displaceself);\r\n\treturn result1;\r\n\t}\r\n\r\n\r\nParam v_displaceselfx;\r\nParam v_displaceselfy;\r\n\r\nout1 = f_displaceself(in1,v_displaceselfx,v_displaceselfy);\r\nout2 = f_displaceself(in2,-v_displaceselfx,v_displaceselfy);",
									"fontface" : 0,
									"fontname" : "<Monospaced>",
									"fontsize" : 11.0,
									"id" : "obj-40",
									"maxclass" : "codebox",
									"numinlets" : 2,
									"numoutlets" : 2,
									"outlettype" : [ "", "" ],
									"patching_rect" : [ 62.5, 61.0, 475.0, 437.0 ]
								}

							}
, 							{
								"box" : 								{
									"fontname" : "Arial",
									"fontsize" : 12.0,
									"id" : "obj-1",
									"maxclass" : "newobj",
									"numinlets" : 0,
									"numoutlets" : 1,
									"outlettype" : [ "" ],
									"patching_rect" : [ 62.5, 23.0, 30.0, 22.0 ],
									"text" : "in 1"
								}

							}
, 							{
								"box" : 								{
									"fontname" : "Arial",
									"fontsize" : 12.0,
									"id" : "obj-4",
									"maxclass" : "newobj",
									"numinlets" : 1,
									"numoutlets" : 0,
									"patching_rect" : [ 62.5, 536.0, 37.0, 22.0 ],
									"text" : "out 1"
								}

							}
 ],
						"lines" : [ 							{
								"patchline" : 								{
									"destination" : [ "obj-40", 0 ],
									"source" : [ "obj-1", 0 ]
								}

							}
, 							{
								"patchline" : 								{
									"destination" : [ "obj-40", 1 ],
									"source" : [ "obj-3", 0 ]
								}

							}
, 							{
								"patchline" : 								{
									"destination" : [ "obj-2", 0 ],
									"source" : [ "obj-40", 1 ]
								}

							}
, 							{
								"patchline" : 								{
									"destination" : [ "obj-4", 0 ],
									"source" : [ "obj-40", 0 ]
								}

							}
 ],
						"bgcolor" : [ 0.9, 0.9, 0.9, 1.0 ],
						"editing_bgcolor" : [ 0.9, 0.9, 0.9, 1.0 ]
					}
,
					"patching_rect" : [ 584.0, 573.0, 185.0, 18.0 ],
					"text" : "jit.gl.pix player @adapt 1"
				}

			}
, 			{
				"box" : 				{
					"fontname" : "Consolas",
					"fontsize" : 10.0,
					"id" : "obj-233",
					"maxclass" : "newobj",
					"numinlets" : 1,
					"numoutlets" : 1,
					"outlettype" : [ "" ],
					"patching_rect" : [ 604.0, 345.0, 124.0, 18.0 ],
					"text" : "prepend v_displacemix"
				}

			}
, 			{
				"box" : 				{
					"fontname" : "Consolas",
					"fontsize" : 10.0,
					"id" : "obj-234",
					"maxclass" : "newobj",
					"numinlets" : 1,
					"numoutlets" : 1,
					"outlettype" : [ "" ],
					"patching_rect" : [ 757.0, 345.0, 101.0, 18.0 ],
					"text" : "prepend v_displace2"
				}

			}
, 			{
				"box" : 				{
					"fontname" : "Consolas",
					"fontsize" : 10.0,
					"id" : "obj-267",
					"maxclass" : "newobj",
					"numinlets" : 1,
					"numoutlets" : 1,
					"outlettype" : [ "" ],
					"patching_rect" : [ 859.0, 519.0, 135.0, 18.0 ],
					"text" : "prepend v_displaceselfx"
				}

			}
, 			{
				"box" : 				{
					"fontname" : "Consolas",
					"fontsize" : 10.0,
					"id" : "obj-276",
					"maxclass" : "newobj",
					"numinlets" : 6,
					"numoutlets" : 1,
					"outlettype" : [ "" ],
					"patching_rect" : [ 859.0, 492.0, 140.0, 18.0 ],
					"text" : "scale 0. 1. -0.009 0.009"
				}

			}
, 			{
				"box" : 				{
					"fontname" : "Consolas",
					"fontsize" : 10.0,
					"id" : "obj-277",
					"maxclass" : "newobj",
					"numinlets" : 1,
					"numoutlets" : 1,
					"outlettype" : [ "" ],
					"patching_rect" : [ 881.0, 671.5, 96.0, 18.0 ],
					"text" : "prepend v_zshift"
				}

			}
, 			{
				"box" : 				{
					"fontname" : "Consolas",
					"fontsize" : 10.0,
					"format" : 6,
					"htricolor" : [ 0.278099328279495, 0.278099328279495, 0.278099328279495, 1.0 ],
					"id" : "obj-281",
					"maxclass" : "flonum",
					"maximum" : 1.0,
					"minimum" : 0.0,
					"numdecimalplaces" : 4,
					"numinlets" : 1,
					"numoutlets" : 2,
					"outlettype" : [ "", "bang" ],
					"parameter_enable" : 0,
					"patching_rect" : [ 757.0, 281.0, 55.0, 18.0 ],
					"presentation" : 1,
					"presentation_rect" : [ 146.0, 81.0, 49.0, 18.0 ],
					"style" : "dsx.flonum",
					"textcolor" : [ 1.0, 1.0, 1.0, 1.0 ],
					"tricolor" : [ 0.278099328279495, 0.278099328279495, 0.278099328279495, 1.0 ],
					"triscale" : 0.5,
					"varname" : "displaceamount2"
				}

			}
, 			{
				"box" : 				{
					"fontname" : "Consolas",
					"fontsize" : 10.0,
					"format" : 6,
					"htricolor" : [ 0.278099328279495, 0.278099328279495, 0.278099328279495, 1.0 ],
					"id" : "obj-282",
					"maxclass" : "flonum",
					"maximum" : 1.0,
					"minimum" : 0.0,
					"numdecimalplaces" : 4,
					"numinlets" : 1,
					"numoutlets" : 2,
					"outlettype" : [ "", "bang" ],
					"parameter_enable" : 0,
					"patching_rect" : [ 604.0, 281.0, 55.0, 18.0 ],
					"presentation" : 1,
					"presentation_rect" : [ 146.0, 121.0, 49.0, 18.0 ],
					"style" : "dsx.flonum",
					"textcolor" : [ 1.0, 1.0, 1.0, 1.0 ],
					"tricolor" : [ 0.278099328279495, 0.278099328279495, 0.278099328279495, 1.0 ],
					"triscale" : 0.5,
					"varname" : "displacemix"
				}

			}
, 			{
				"box" : 				{
					"fontname" : "Consolas",
					"fontsize" : 10.0,
					"id" : "obj-284",
					"maxclass" : "newobj",
					"numinlets" : 1,
					"numoutlets" : 1,
					"outlettype" : [ "" ],
					"patching_rect" : [ 442.0, 345.0, 101.0, 18.0 ],
					"text" : "prepend v_displace1"
				}

			}
, 			{
				"box" : 				{
					"fontname" : "Consolas",
					"fontsize" : 10.0,
					"format" : 6,
					"htricolor" : [ 0.278099328279495, 0.278099328279495, 0.278099328279495, 1.0 ],
					"id" : "obj-294",
					"maxclass" : "flonum",
					"maximum" : 1.0,
					"minimum" : 0.0,
					"numdecimalplaces" : 4,
					"numinlets" : 1,
					"numoutlets" : 2,
					"outlettype" : [ "", "bang" ],
					"parameter_enable" : 0,
					"patching_rect" : [ 881.0, 607.5, 51.0, 18.0 ],
					"presentation" : 1,
					"presentation_rect" : [ 146.0, 101.0, 46.0, 18.0 ],
					"style" : "dsx.flonum",
					"textcolor" : [ 1.0, 1.0, 1.0, 1.0 ],
					"tricolor" : [ 0.278099328279495, 0.278099328279495, 0.278099328279495, 1.0 ],
					"triscale" : 0.5,
					"varname" : "zshift"
				}

			}
, 			{
				"box" : 				{
					"fontname" : "Consolas",
					"fontsize" : 10.0,
					"id" : "obj-303",
					"maxclass" : "newobj",
					"numinlets" : 6,
					"numoutlets" : 1,
					"outlettype" : [ "" ],
					"patching_rect" : [ 881.0, 642.5, 151.0, 18.0 ],
					"text" : "scale 0. 1. -0.025 0.025"
				}

			}
, 			{
				"box" : 				{
					"fontname" : "Consolas",
					"fontsize" : 10.0,
					"format" : 6,
					"htricolor" : [ 0.278099328279495, 0.278099328279495, 0.278099328279495, 1.0 ],
					"id" : "obj-305",
					"maxclass" : "flonum",
					"maximum" : 1.0,
					"minimum" : 0.0,
					"numdecimalplaces" : 4,
					"numinlets" : 1,
					"numoutlets" : 2,
					"outlettype" : [ "", "bang" ],
					"parameter_enable" : 0,
					"patching_rect" : [ 442.0, 281.0, 51.0, 18.0 ],
					"presentation" : 1,
					"presentation_rect" : [ 146.0, 61.0, 46.0, 18.0 ],
					"style" : "dsx.flonum",
					"textcolor" : [ 1.0, 1.0, 1.0, 1.0 ],
					"tricolor" : [ 0.278099328279495, 0.278099328279495, 0.278099328279495, 1.0 ],
					"triscale" : 0.5,
					"varname" : "displaceamount1"
				}

			}
, 			{
				"box" : 				{
					"fontname" : "Consolas",
					"fontsize" : 10.0,
					"id" : "obj-329",
					"maxclass" : "newobj",
					"numinlets" : 6,
					"numoutlets" : 1,
					"outlettype" : [ "" ],
					"patching_rect" : [ 442.0, 316.0, 102.0, 18.0 ],
					"text" : "scale 0. 1. -0.03 0.03"
				}

			}
, 			{
				"box" : 				{
					"bgcolor" : [ 0.423529411764706, 0.423529411764706, 0.423529411764706, 0.0 ],
					"bubbleusescolors" : 1,
					"fontface" : 1,
					"fontname" : "Consolas",
					"fontsize" : 10.0,
					"id" : "obj-461",
					"maxclass" : "comment",
					"numinlets" : 1,
					"numoutlets" : 0,
					"patching_rect" : [ 122.20556600000009, 157.700073999999859, 98.0, 16.0 ],
					"presentation" : 1,
					"presentation_rect" : [ 1.0, 42.0, 114.0, 16.0 ],
					"text" : "Displacement Self",
					"textcolor" : [ 0.129411764705882, 0.129411764705882, 0.129411764705882, 1.0 ]
				}

			}
, 			{
				"box" : 				{
					"angle" : 0.0,
					"bgcolor" : [ 0.537254901960784, 0.537254901960784, 0.537254901960784, 1.0 ],
					"id" : "obj-465",
					"maxclass" : "panel",
					"mode" : 0,
					"numinlets" : 1,
					"numoutlets" : 0,
					"patching_rect" : [ 185.0, 45.0, 128.0, 128.0 ],
					"presentation" : 1,
					"presentation_rect" : [ 1.0, 41.0, 200.0, 19.0 ],
					"proportion" : 0.39,
					"rounded" : 0
				}

			}
, 			{
				"box" : 				{
					"bgcolor" : [ 0.423529411764706, 0.423529411764706, 0.423529411764706, 0.0 ],
					"bubbleusescolors" : 1,
					"fontface" : 1,
					"fontname" : "Consolas",
					"fontsize" : 10.0,
					"id" : "obj-144",
					"maxclass" : "comment",
					"numinlets" : 1,
					"numoutlets" : 0,
					"patching_rect" : [ 122.20556600000009, 157.700073999999859, 101.0, 16.0 ],
					"presentation" : 1,
					"presentation_rect" : [ 1.0, 22.0, 46.0, 16.0 ],
					"text" : "Mode",
					"textcolor" : [ 0.129411764705882, 0.129411764705882, 0.129411764705882, 1.0 ]
				}

			}
, 			{
				"box" : 				{
					"bgcolor" : [ 0.423529411764706, 0.423529411764706, 0.423529411764706, 0.0 ],
					"bubbleusescolors" : 1,
					"fontface" : 1,
					"fontname" : "Consolas",
					"fontsize" : 10.0,
					"id" : "obj-375",
					"maxclass" : "comment",
					"numinlets" : 1,
					"numoutlets" : 0,
					"patching_rect" : [ 152.20556600000009, 187.700073999999859, 98.0, 16.0 ],
					"presentation" : 1,
					"presentation_rect" : [ 1.0, 103.0, 114.0, 16.0 ],
					"text" : "Z-Pos",
					"textcolor" : [ 0.129411764705882, 0.129411764705882, 0.129411764705882, 1.0 ]
				}

			}
, 			{
				"box" : 				{
					"bgcolor" : [ 0.423529411764706, 0.423529411764706, 0.423529411764706, 0.0 ],
					"bubbleusescolors" : 1,
					"fontface" : 1,
					"fontname" : "Consolas",
					"fontsize" : 10.0,
					"id" : "obj-367",
					"maxclass" : "comment",
					"numinlets" : 1,
					"numoutlets" : 0,
					"patching_rect" : [ 122.20556600000009, 157.700073999999859, 98.0, 16.0 ],
					"presentation" : 1,
					"presentation_rect" : [ 1.0, 82.0, 114.0, 16.0 ],
					"text" : "Displacement In2",
					"textcolor" : [ 0.129411764705882, 0.129411764705882, 0.129411764705882, 1.0 ]
				}

			}
, 			{
				"box" : 				{
					"bgcolor" : [ 0.423529411764706, 0.423529411764706, 0.423529411764706, 0.0 ],
					"bubbleusescolors" : 1,
					"fontface" : 1,
					"fontname" : "Consolas",
					"fontsize" : 10.0,
					"id" : "obj-366",
					"maxclass" : "comment",
					"numinlets" : 1,
					"numoutlets" : 0,
					"patching_rect" : [ 107.20556600000009, 142.700073999999859, 98.0, 16.0 ],
					"presentation" : 1,
					"presentation_rect" : [ 1.0, 62.0, 114.0, 16.0 ],
					"text" : "Displacement In1",
					"textcolor" : [ 0.129411764705882, 0.129411764705882, 0.129411764705882, 1.0 ]
				}

			}
, 			{
				"box" : 				{
					"angle" : 0.0,
					"bgcolor" : [ 0.537254901960784, 0.537254901960784, 0.537254901960784, 1.0 ],
					"id" : "obj-112",
					"maxclass" : "panel",
					"mode" : 0,
					"numinlets" : 1,
					"numoutlets" : 0,
					"patching_rect" : [ 130.20556600000009, 30.0, 128.0, 128.0 ],
					"presentation" : 1,
					"presentation_rect" : [ 1.0, 61.0, 200.0, 19.0 ],
					"proportion" : 0.39,
					"rounded" : 0
				}

			}
, 			{
				"box" : 				{
					"angle" : 0.0,
					"bgcolor" : [ 0.537254901960784, 0.537254901960784, 0.537254901960784, 1.0 ],
					"id" : "obj-140",
					"maxclass" : "panel",
					"mode" : 0,
					"numinlets" : 1,
					"numoutlets" : 0,
					"patching_rect" : [ 197.0, 56.0, 128.0, 128.0 ],
					"presentation" : 1,
					"presentation_rect" : [ 1.0, 81.0, 200.0, 19.0 ],
					"proportion" : 0.39,
					"rounded" : 0
				}

			}
, 			{
				"box" : 				{
					"angle" : 0.0,
					"bgcolor" : [ 0.537254901960784, 0.537254901960784, 0.537254901960784, 1.0 ],
					"bordercolor" : [ 0.807843137254902, 0.898039215686275, 0.909803921568627, 0.0 ],
					"id" : "obj-440",
					"maxclass" : "panel",
					"mode" : 0,
					"numinlets" : 1,
					"numoutlets" : 0,
					"patching_rect" : [ 150.5, 91.0, 128.0, 128.0 ],
					"presentation" : 1,
					"presentation_rect" : [ 1.0, 21.0, 66.0, 19.0 ],
					"proportion" : 0.39,
					"rounded" : 0
				}

			}
, 			{
				"box" : 				{
					"bgcolor" : [ 0.423529411764706, 0.423529411764706, 0.423529411764706, 0.0 ],
					"bubbleusescolors" : 1,
					"fontface" : 1,
					"fontname" : "Consolas",
					"fontsize" : 10.0,
					"id" : "obj-368",
					"maxclass" : "comment",
					"numinlets" : 1,
					"numoutlets" : 0,
					"patching_rect" : [ 137.20556600000009, 172.700073999999859, 99.0, 16.0 ],
					"presentation" : 1,
					"presentation_rect" : [ 1.0, 122.0, 72.0, 16.0 ],
					"text" : "DisplMix",
					"textcolor" : [ 0.129411764705882, 0.129411764705882, 0.129411764705882, 1.0 ]
				}

			}
, 			{
				"box" : 				{
					"angle" : 0.0,
					"bgcolor" : [ 0.537254901960784, 0.537254901960784, 0.537254901960784, 1.0 ],
					"id" : "obj-372",
					"maxclass" : "panel",
					"mode" : 0,
					"numinlets" : 1,
					"numoutlets" : 0,
					"patching_rect" : [ 130.20556600000009, 68.0, 128.0, 128.0 ],
					"presentation" : 1,
					"presentation_rect" : [ 1.0, 121.0, 200.0, 19.0 ],
					"proportion" : 0.39,
					"rounded" : 0
				}

			}
, 			{
				"box" : 				{
					"angle" : 0.0,
					"bgcolor" : [ 0.537254901960784, 0.537254901960784, 0.537254901960784, 1.0 ],
					"id" : "obj-433",
					"maxclass" : "panel",
					"mode" : 0,
					"numinlets" : 1,
					"numoutlets" : 0,
					"patching_rect" : [ 165.0, 68.0, 128.0, 128.0 ],
					"presentation" : 1,
					"presentation_rect" : [ 1.0, 101.0, 200.0, 19.0 ],
					"proportion" : 0.39,
					"rounded" : 0
				}

			}
 ],
		"lines" : [ 			{
				"patchline" : 				{
					"destination" : [ "obj-228", 0 ],
					"order" : 1,
					"source" : [ "obj-1", 0 ]
				}

			}
, 			{
				"patchline" : 				{
					"destination" : [ "obj-355", 2 ],
					"order" : 0,
					"source" : [ "obj-1", 0 ]
				}

			}
, 			{
				"patchline" : 				{
					"destination" : [ "obj-232", 1 ],
					"source" : [ "obj-228", 1 ]
				}

			}
, 			{
				"patchline" : 				{
					"destination" : [ "obj-232", 0 ],
					"source" : [ "obj-228", 0 ]
				}

			}
, 			{
				"patchline" : 				{
					"destination" : [ "obj-332", 0 ],
					"source" : [ "obj-230", 1 ]
				}

			}
, 			{
				"patchline" : 				{
					"destination" : [ "obj-335", 0 ],
					"source" : [ "obj-230", 0 ]
				}

			}
, 			{
				"patchline" : 				{
					"destination" : [ "obj-230", 1 ],
					"midpoints" : [ 676.5, 663.850097999999889, 759.5, 663.850097999999889 ],
					"source" : [ "obj-232", 1 ]
				}

			}
, 			{
				"patchline" : 				{
					"destination" : [ "obj-230", 0 ],
					"source" : [ "obj-232", 0 ]
				}

			}
, 			{
				"patchline" : 				{
					"destination" : [ "obj-228", 0 ],
					"midpoints" : [ 613.5, 395.600097999999889, 593.5, 395.600097999999889 ],
					"source" : [ "obj-233", 0 ]
				}

			}
, 			{
				"patchline" : 				{
					"destination" : [ "obj-228", 0 ],
					"midpoints" : [ 766.5, 373.600097999999889, 593.5, 373.600097999999889 ],
					"source" : [ "obj-234", 0 ]
				}

			}
, 			{
				"patchline" : 				{
					"destination" : [ "obj-276", 0 ],
					"source" : [ "obj-266", 0 ]
				}

			}
, 			{
				"patchline" : 				{
					"destination" : [ "obj-232", 0 ],
					"midpoints" : [ 868.5, 550.100097999999889, 593.5, 550.100097999999889 ],
					"source" : [ "obj-267", 0 ]
				}

			}
, 			{
				"patchline" : 				{
					"destination" : [ "obj-267", 0 ],
					"source" : [ "obj-276", 0 ]
				}

			}
, 			{
				"patchline" : 				{
					"destination" : [ "obj-230", 0 ],
					"midpoints" : [ 890.5, 706.350097999999889, 593.5, 706.350097999999889 ],
					"source" : [ "obj-277", 0 ]
				}

			}
, 			{
				"patchline" : 				{
					"destination" : [ "obj-487", 0 ],
					"source" : [ "obj-281", 0 ]
				}

			}
, 			{
				"patchline" : 				{
					"destination" : [ "obj-233", 0 ],
					"source" : [ "obj-282", 0 ]
				}

			}
, 			{
				"patchline" : 				{
					"destination" : [ "obj-228", 0 ],
					"midpoints" : [ 451.5, 391.600097999999889, 593.5, 391.600097999999889 ],
					"source" : [ "obj-284", 0 ]
				}

			}
, 			{
				"patchline" : 				{
					"destination" : [ "obj-441", 0 ],
					"order" : 1,
					"source" : [ "obj-288", 0 ]
				}

			}
, 			{
				"patchline" : 				{
					"destination" : [ "obj-443", 0 ],
					"midpoints" : [ 227.5, 667.600097999999889, 365.5, 667.600097999999889 ],
					"order" : 0,
					"source" : [ "obj-288", 0 ]
				}

			}
, 			{
				"patchline" : 				{
					"destination" : [ "obj-303", 0 ],
					"source" : [ "obj-294", 0 ]
				}

			}
, 			{
				"patchline" : 				{
					"destination" : [ "obj-228", 1 ],
					"source" : [ "obj-3", 0 ]
				}

			}
, 			{
				"patchline" : 				{
					"destination" : [ "obj-277", 0 ],
					"source" : [ "obj-303", 0 ]
				}

			}
, 			{
				"patchline" : 				{
					"destination" : [ "obj-329", 0 ],
					"source" : [ "obj-305", 0 ]
				}

			}
, 			{
				"patchline" : 				{
					"destination" : [ "obj-284", 0 ],
					"source" : [ "obj-329", 0 ]
				}

			}
, 			{
				"patchline" : 				{
					"destination" : [ "obj-355", 1 ],
					"source" : [ "obj-332", 0 ]
				}

			}
, 			{
				"patchline" : 				{
					"destination" : [ "obj-355", 0 ],
					"source" : [ "obj-335", 0 ]
				}

			}
, 			{
				"patchline" : 				{
					"destination" : [ "obj-355", 0 ],
					"midpoints" : [ 227.5, 830.100097999999889, 594.5, 830.100097999999889 ],
					"source" : [ "obj-338", 0 ]
				}

			}
, 			{
				"patchline" : 				{
					"destination" : [ "obj-2", 0 ],
					"source" : [ "obj-355", 0 ]
				}

			}
, 			{
				"patchline" : 				{
					"destination" : [ "obj-288", 0 ],
					"source" : [ "obj-359", 1 ]
				}

			}
, 			{
				"patchline" : 				{
					"destination" : [ "obj-228", 2 ],
					"source" : [ "obj-4", 0 ]
				}

			}
, 			{
				"patchline" : 				{
					"destination" : [ "obj-332", 0 ],
					"order" : 0,
					"source" : [ "obj-438", 0 ]
				}

			}
, 			{
				"patchline" : 				{
					"destination" : [ "obj-335", 0 ],
					"order" : 2,
					"source" : [ "obj-438", 0 ]
				}

			}
, 			{
				"patchline" : 				{
					"destination" : [ "obj-355", 0 ],
					"order" : 1,
					"source" : [ "obj-438", 0 ]
				}

			}
, 			{
				"patchline" : 				{
					"destination" : [ "obj-338", 0 ],
					"source" : [ "obj-441", 0 ]
				}

			}
, 			{
				"patchline" : 				{
					"destination" : [ "obj-447", 0 ],
					"source" : [ "obj-443", 0 ]
				}

			}
, 			{
				"patchline" : 				{
					"destination" : [ "obj-452", 0 ],
					"source" : [ "obj-447", 0 ]
				}

			}
, 			{
				"patchline" : 				{
					"destination" : [ "obj-228", 0 ],
					"order" : 2,
					"source" : [ "obj-452", 0 ]
				}

			}
, 			{
				"patchline" : 				{
					"destination" : [ "obj-230", 0 ],
					"order" : 0,
					"source" : [ "obj-452", 0 ]
				}

			}
, 			{
				"patchline" : 				{
					"destination" : [ "obj-232", 0 ],
					"order" : 1,
					"source" : [ "obj-452", 0 ]
				}

			}
, 			{
				"patchline" : 				{
					"destination" : [ "obj-234", 0 ],
					"source" : [ "obj-487", 0 ]
				}

			}
 ],
		"styles" : [ 			{
				"name" : "dsx.flonum",
				"default" : 				{
					"accentcolor" : [ 0.32156862745098, 0.341176470588235, 0.368627450980392, 1.0 ],
					"bgcolor" : [ 0.8, 0.8, 0.8, 0.0 ],
					"fontname" : [ "Geneva" ],
					"fontsize" : [ 9.0 ],
					"selectioncolor" : [ 0.32156862745098, 0.341176470588235, 0.368627450980392, 1.0 ],
					"textcolor_inverse" : [ 0.780392156862745, 0.141176470588235, 0.019607843137255, 1.0 ]
				}
,
				"parentstyle" : "",
				"multi" : 0
			}
, 			{
				"name" : "dsx.tab3",
				"default" : 				{
					"clearcolor" : [ 0.862745098039216, 0.870588235294118, 0.87843137254902, 1.0 ],
					"color" : [ 0.780392156862745, 0.141176470588235, 0.019607843137255, 1.0 ],
					"elementcolor" : [ 0.729411764705882, 0.737254901960784, 0.741176470588235, 1.0 ],
					"textcolor_inverse" : [ 0.223529411764706, 0.23921568627451, 0.258823529411765, 1.0 ]
				}
,
				"parentstyle" : "",
				"multi" : 0
			}
 ]
	}

}
