{
	"patcher" : 	{
		"fileversion" : 1,
		"appversion" : 		{
			"major" : 8,
			"minor" : 5,
			"revision" : 3,
			"architecture" : "x64",
			"modernui" : 1
		}
,
		"classnamespace" : "jit.gen",
		"rect" : [ 1536.0, 227.0, 1378.0, 960.0 ],
		"bglocked" : 0,
		"openinpresentation" : 0,
		"default_fontsize" : 10.0,
		"default_fontface" : 0,
		"default_fontname" : "Consolas",
		"gridonopen" : 1,
		"gridsize" : [ 15.0, 15.0 ],
		"gridsnaponopen" : 1,
		"objectsnaponopen" : 1,
		"statusbarvisible" : 2,
		"toolbarvisible" : 1,
		"lefttoolbarpinned" : 0,
		"toptoolbarpinned" : 0,
		"righttoolbarpinned" : 0,
		"bottomtoolbarpinned" : 0,
		"toolbars_unpinned_last_save" : 0,
		"tallnewobj" : 0,
		"boxanimatetime" : 200,
		"enablehscroll" : 1,
		"enablevscroll" : 1,
		"devicewidth" : 0.0,
		"description" : "",
		"digest" : "",
		"tags" : "",
		"style" : "",
		"subpatcher_template" : "",
		"assistshowspatchername" : 0,
		"boxes" : [ 			{
				"box" : 				{
					"id" : "obj-12",
					"maxclass" : "newobj",
					"numinlets" : 0,
					"numoutlets" : 1,
					"outlettype" : [ "" ],
					"patching_rect" : [ 921.0, 565.0, 91.0, 20.0 ],
					"text" : "param threshold"
				}

			}
, 			{
				"box" : 				{
					"id" : "obj-11",
					"maxclass" : "newobj",
					"numinlets" : 0,
					"numoutlets" : 1,
					"outlettype" : [ "" ],
					"patching_rect" : [ 1020.0, 565.0, 19.0, 20.0 ],
					"text" : "1"
				}

			}
, 			{
				"box" : 				{
					"id" : "obj-10",
					"maxclass" : "newobj",
					"numinlets" : 0,
					"numoutlets" : 1,
					"outlettype" : [ "" ],
					"patching_rect" : [ 1102.0, 625.0, 91.0, 20.0 ],
					"text" : "param threshmix"
				}

			}
, 			{
				"box" : 				{
					"id" : "obj-9",
					"maxclass" : "newobj",
					"numinlets" : 3,
					"numoutlets" : 1,
					"outlettype" : [ "" ],
					"patching_rect" : [ 899.0, 654.0, 222.0, 20.0 ],
					"text" : "mix"
				}

			}
, 			{
				"box" : 				{
					"id" : "obj-8",
					"maxclass" : "newobj",
					"numinlets" : 3,
					"numoutlets" : 1,
					"outlettype" : [ "" ],
					"patching_rect" : [ 899.0, 534.0, 85.0, 20.0 ],
					"text" : "switch"
				}

			}
, 			{
				"box" : 				{
					"id" : "obj-7",
					"maxclass" : "newobj",
					"numinlets" : 1,
					"numoutlets" : 1,
					"outlettype" : [ "" ],
					"patching_rect" : [ 932.0, 459.0, 30.0, 20.0 ],
					"text" : "!- 1"
				}

			}
, 			{
				"box" : 				{
					"id" : "obj-6",
					"linecount" : 2,
					"maxclass" : "newobj",
					"numinlets" : 0,
					"numoutlets" : 1,
					"outlettype" : [ "" ],
					"patching_rect" : [ 899.0, 492.0, 41.0, 32.0 ],
					"text" : "param invert"
				}

			}
, 			{
				"box" : 				{
					"id" : "obj-5",
					"maxclass" : "newobj",
					"numinlets" : 1,
					"numoutlets" : 1,
					"outlettype" : [ "" ],
					"patching_rect" : [ 932.0, 418.0, 41.0, 20.0 ],
					"text" : "swiz z"
				}

			}
, 			{
				"box" : 				{
					"id" : "obj-3",
					"maxclass" : "newobj",
					"numinlets" : 1,
					"numoutlets" : 1,
					"outlettype" : [ "" ],
					"patching_rect" : [ 932.0, 391.0, 47.0, 20.0 ],
					"text" : "rgb2hsl"
				}

			}
, 			{
				"box" : 				{
					"id" : "obj-2",
					"maxclass" : "newobj",
					"numinlets" : 3,
					"numoutlets" : 1,
					"outlettype" : [ "" ],
					"patching_rect" : [ 899.0, 607.0, 63.0, 20.0 ],
					"text" : "smoothstep"
				}

			}
, 			{
				"box" : 				{
					"code" : "luminance(image) \r\n{\r\n\tlumacoeff = vec(0.2999,0.587,0.114,0);\r\n\tlumaimage = dot(image,lumacoeff);\r\n\t//lumaimage = clip(lumaimage,0.0001,0.9999);\r\n\treturn lumaimage;\r\n\t\r\n}\r\n\r\n\r\n\r\n/*\r\nth_binary(img,thrsh,invert,soft)\r\n{\t\r\n\tbinary = 0;\r\n\tt1 = thrsh;\r\n\tt2 = thrsh - 0.0001 - soft;\r\n\t\r\n\tif (invert == 0) \r\n\t{\r\n\t\t//binary = step(thrsh,luminance(img));\r\n\t\tbinary = smoothstep(t2,t1,luminance(img));\r\n\t}\r\n\telse\r\n\t{\r\n\t\t//binary = step(luminance(img),thrsh);\r\n\t\tbinary = smoothstep(t1,t2,luminance(img));\r\n\t}\r\n\treturn binary;\r\n}\r\n*/\r\n\r\ninvertion(img, inv) \r\n{\r\n\t\r\n\timage = 0;\r\n\tif (inv == 0) {\r\n\t\timage = img;\r\n\t\t}\r\n\t\r\n\telse {\r\n\t\timage = 1-img;\r\n\t\t}\r\n\t\r\n\treturn image;\r\n\t\t\r\n}\r\n\r\n\r\n\r\n/*\r\n\r\nth_binary(img,thrsh,invert,soft)\r\n{\t\r\n\t\r\n\t\r\n\t\r\n\twidth = (soft + 0.01) * 0.5;\r\n\tt1 = thrsh + width; //higher limit\r\n\tt2 = thrsh - width; // lower limit\r\n\ttdist = t2 - t1; // distance between limits\r\n\r\n\t\r\n\tbinary = clip(luminance(img),t2,t1);\r\n\tbinary -= t1;\r\n\tbinary /= tdist;\r\n\tbinary = smoothstep(0,1,binary);\r\n\tbinary = invertion(binary, invert);\r\n\t\r\n\treturn binary;\r\n}\r\n*/\r\n\r\n\r\n\r\nth_binary(img, thrsh,invert,thrsmix,lumascale) \r\n{\r\n\r\n\r\n\tlumaimg =\tluminance(img);\r\n\tlumaimg *=\tlumascale;\r\n\tlumaimg =\tclamp(lumaimg,0,1);\r\n\r\n\tbinimg = \tstep(luminance(img),thrsh);\r\n\tbinimg = \tinvertion(binimg,invert);\r\n\t\r\n\tresult =\tmix(binimg,binimg * lumaimg,thrsmix,lumascale);\r\n\t\r\n\treturn result;\r\n\r\n\r\n}\r\n\t\r\n\r\nParam invert;\r\nParam threshold;\r\nParam threshmix;\r\nParam threshscale;\r\n\r\n\r\nout1 = th_binary(in1,threshold,invert,threshmix,threshscale);\r\n\r\n\t\r\n\r\n\t\r\n",
					"fontface" : 0,
					"fontname" : "<Monospaced>",
					"fontsize" : 12.0,
					"id" : "obj-15",
					"maxclass" : "codebox",
					"numinlets" : 1,
					"numoutlets" : 1,
					"outlettype" : [ "" ],
					"patching_rect" : [ 14.5, 275.0, 687.0, 676.0 ]
				}

			}
, 			{
				"box" : 				{
					"fontname" : "Arial",
					"fontsize" : 12.0,
					"id" : "obj-1",
					"maxclass" : "newobj",
					"numinlets" : 0,
					"numoutlets" : 1,
					"outlettype" : [ "" ],
					"patching_rect" : [ 39.5, 17.0, 28.0, 22.0 ],
					"text" : "in 1"
				}

			}
, 			{
				"box" : 				{
					"fontname" : "Arial",
					"fontsize" : 12.0,
					"id" : "obj-4",
					"maxclass" : "newobj",
					"numinlets" : 1,
					"numoutlets" : 0,
					"patching_rect" : [ 899.0, 705.0, 35.0, 22.0 ],
					"text" : "out 1"
				}

			}
 ],
		"lines" : [ 			{
				"patchline" : 				{
					"destination" : [ "obj-3", 0 ],
					"order" : 1,
					"source" : [ "obj-1", 0 ]
				}

			}
, 			{
				"patchline" : 				{
					"destination" : [ "obj-9", 1 ],
					"midpoints" : [ 49.0, 632.0, 1010.0, 632.0 ],
					"order" : 0,
					"source" : [ "obj-1", 0 ]
				}

			}
, 			{
				"patchline" : 				{
					"destination" : [ "obj-9", 2 ],
					"source" : [ "obj-10", 0 ]
				}

			}
, 			{
				"patchline" : 				{
					"destination" : [ "obj-2", 2 ],
					"midpoints" : [ 1029.5, 604.5, 952.5, 604.5 ],
					"source" : [ "obj-11", 0 ]
				}

			}
, 			{
				"patchline" : 				{
					"destination" : [ "obj-2", 1 ],
					"source" : [ "obj-12", 0 ]
				}

			}
, 			{
				"patchline" : 				{
					"destination" : [ "obj-9", 0 ],
					"source" : [ "obj-2", 0 ]
				}

			}
, 			{
				"patchline" : 				{
					"destination" : [ "obj-5", 0 ],
					"source" : [ "obj-3", 0 ]
				}

			}
, 			{
				"patchline" : 				{
					"destination" : [ "obj-7", 0 ],
					"order" : 1,
					"source" : [ "obj-5", 0 ]
				}

			}
, 			{
				"patchline" : 				{
					"destination" : [ "obj-8", 2 ],
					"midpoints" : [ 941.5, 445.0, 974.5, 445.0 ],
					"order" : 0,
					"source" : [ "obj-5", 0 ]
				}

			}
, 			{
				"patchline" : 				{
					"destination" : [ "obj-8", 0 ],
					"source" : [ "obj-6", 0 ]
				}

			}
, 			{
				"patchline" : 				{
					"destination" : [ "obj-8", 1 ],
					"source" : [ "obj-7", 0 ]
				}

			}
, 			{
				"patchline" : 				{
					"destination" : [ "obj-2", 0 ],
					"source" : [ "obj-8", 0 ]
				}

			}
, 			{
				"patchline" : 				{
					"destination" : [ "obj-4", 0 ],
					"source" : [ "obj-9", 0 ]
				}

			}
 ],
		"bgcolor" : [ 0.9, 0.9, 0.9, 1.0 ],
		"editing_bgcolor" : [ 0.9, 0.9, 0.9, 1.0 ]
	}

}
